<svg xmlns="http://www.w3.org/2000/svg" xmlns:xlink="http://www.w3.org/1999/xlink" version="1.1" class="marks" width="763" height="391" viewBox="0 0 763 391"><rect width="763" height="391" fill="white"/><g fill="none" stroke-miterlimit="10" transform="translate(44,25)"><g class="mark-group role-frame root" role="graphics-object" aria-roledescription="group mark container"><g transform="translate(0,0)"><path class="background" aria-hidden="true" d="M0.5,0.5h440v300h-440Z" stroke="#ddd"/><g><g class="mark-group role-axis" aria-hidden="true"><g transform="translate(0.5,0.5)"><path class="background" aria-hidden="true" d="M0,0h0v0h0Z" pointer-events="none"/><g><g class="mark-rule role-axis-grid" pointer-events="none"><line transform="translate(0,300)" x2="440" y2="0" stroke="#ddd" stroke-width="1" opacity="1"/><line transform="translate(0,270)" x2="440" y2="0" stroke="#ddd" stroke-width="1" opacity="1"/><line transform="translate(0,240)" x2="440" y2="0" stroke="#ddd" stroke-width="1" opacity="1"/><line transform="translate(0,210)" x2="440" y2="0" stroke="#ddd" stroke-width="1" opacity="1"/><line transform="translate(0,180)" x2="440" y2="0" stroke="#ddd" stroke-width="1" opacity="1"/><line transform="translate(0,150)" x2="440" y2="0" stroke="#ddd" stroke-width="1" opacity="1"/><line transform="translate(0,120)" x2="440" y2="0" stroke="#ddd" stroke-width="1" opacity="1"/><line transform="translate(0,90)" x2="440" y2="0" stroke="#ddd" stroke-width="1" opacity="1"/><line transform="translate(0,60)" x2="440" y2="0" stroke="#ddd" stroke-width="1" opacity="1"/><line transform="translate(0,30)" x2="440" y2="0" stroke="#ddd" stroke-width="1" opacity="1"/><line transform="translate(0,0)" x2="440" y2="0" stroke="#ddd" stroke-width="1" opacity="1"/></g></g><path class="foreground" aria-hidden="true" d="" pointer-events="none" display="none"/></g></g><g class="mark-group role-axis" role="graphics-symbol" aria-roledescription="axis" aria-label="X-axis for a discrete scale with 4 values: no tests, source tests, target tests, both tests"><g transform="translate(0.5,300.5)"><path class="background" aria-hidden="true" d="M0,0h0v0h0Z" pointer-events="none"/><g><g class="mark-rule role-axis-tick" pointer-events="none"><line transform="translate(62,0)" x2="0" y2="5" stroke="#888" stroke-width="1" opacity="1"/><line transform="translate(167,0)" x2="0" y2="5" stroke="#888" stroke-width="1" opacity="1"/><line transform="translate(272,0)" x2="0" y2="5" stroke="#888" stroke-width="1" opacity="1"/><line transform="translate(377,0)" x2="0" y2="5" stroke="#888" stroke-width="1" opacity="1"/></g><g class="mark-text role-axis-label" pointer-events="none"><text text-anchor="end" transform="translate(62.35714285714287,7) rotate(270) translate(0,3)" font-family="sans-serif" font-size="10px" fill="#000" opacity="1">no tests</text><text text-anchor="end" transform="translate(167.11904761904762,7) rotate(270) translate(0,3)" font-family="sans-serif" font-size="10px" fill="#000" opacity="1">source tests</text><text text-anchor="end" transform="translate(271.8809523809524,7) rotate(270) translate(0,3)" font-family="sans-serif" font-size="10px" fill="#000" opacity="1">target tests</text><text text-anchor="end" transform="translate(376.64285714285717,7) rotate(270) translate(0,3)" font-family="sans-serif" font-size="10px" fill="#000" opacity="1">both tests</text></g><g class="mark-rule role-axis-domain" pointer-events="none"><line transform="translate(0,0)" x2="440" y2="0" stroke="#888" stroke-width="1" opacity="1"/></g></g><path class="foreground" aria-hidden="true" d="" pointer-events="none" display="none"/></g></g><g class="mark-group role-axis" role="graphics-symbol" aria-roledescription="axis" aria-label="Y-axis titled 'Similarity to reference (%)' for a linear scale with values from 0 to 100"><g transform="translate(0.5,0.5)"><path class="background" aria-hidden="true" d="M0,0h0v0h0Z" pointer-events="none"/><g><g class="mark-rule role-axis-tick" pointer-events="none"><line transform="translate(0,300)" x2="-5" y2="0" stroke="#888" stroke-width="1" opacity="1"/><line transform="translate(0,270)" x2="-5" y2="0" stroke="#888" stroke-width="1" opacity="1"/><line transform="translate(0,240)" x2="-5" y2="0" stroke="#888" stroke-width="1" opacity="1"/><line transform="translate(0,210)" x2="-5" y2="0" stroke="#888" stroke-width="1" opacity="1"/><line transform="translate(0,180)" x2="-5" y2="0" stroke="#888" stroke-width="1" opacity="1"/><line transform="translate(0,150)" x2="-5" y2="0" stroke="#888" stroke-width="1" opacity="1"/><line transform="translate(0,120)" x2="-5" y2="0" stroke="#888" stroke-width="1" opacity="1"/><line transform="translate(0,90)" x2="-5" y2="0" stroke="#888" stroke-width="1" opacity="1"/><line transform="translate(0,60)" x2="-5" y2="0" stroke="#888" stroke-width="1" opacity="1"/><line transform="translate(0,30)" x2="-5" y2="0" stroke="#888" stroke-width="1" opacity="1"/><line transform="translate(0,0)" x2="-5" y2="0" stroke="#888" stroke-width="1" opacity="1"/></g><g class="mark-text role-axis-label" pointer-events="none"><text text-anchor="end" transform="translate(-7,303)" font-family="sans-serif" font-size="10px" fill="#000" opacity="1">0</text><text text-anchor="end" transform="translate(-7,273)" font-family="sans-serif" font-size="10px" fill="#000" opacity="1">10</text><text text-anchor="end" transform="translate(-7,243)" font-family="sans-serif" font-size="10px" fill="#000" opacity="1">20</text><text text-anchor="end" transform="translate(-7,213)" font-family="sans-serif" font-size="10px" fill="#000" opacity="1">30</text><text text-anchor="end" transform="translate(-7,183)" font-family="sans-serif" font-size="10px" fill="#000" opacity="1">40</text><text text-anchor="end" transform="translate(-7,153)" font-family="sans-serif" font-size="10px" fill="#000" opacity="1">50</text><text text-anchor="end" transform="translate(-7,123)" font-family="sans-serif" font-size="10px" fill="#000" opacity="1">60</text><text text-anchor="end" transform="translate(-7,93.00000000000001)" font-family="sans-serif" font-size="10px" fill="#000" opacity="1">70</text><text text-anchor="end" transform="translate(-7,62.999999999999986)" font-family="sans-serif" font-size="10px" fill="#000" opacity="1">80</text><text text-anchor="end" transform="translate(-7,32.99999999999999)" font-family="sans-serif" font-size="10px" fill="#000" opacity="1">90</text><text text-anchor="end" transform="translate(-7,3)" font-family="sans-serif" font-size="10px" fill="#000" opacity="1">100</text></g><g class="mark-rule role-axis-domain" pointer-events="none"><line transform="translate(0,300)" x2="0" y2="-300" stroke="#888" stroke-width="1" opacity="1"/></g><g class="mark-text role-axis-title" pointer-events="none"><text text-anchor="middle" transform="translate(-27.6845703125,150) rotate(-90) translate(0,-2)" font-family="sans-serif" font-size="11px" font-weight="bold" fill="#000" opacity="1">Similarity to reference (%)</text></g></g><path class="foreground" aria-hidden="true" d="" pointer-events="none" display="none"/></g></g><g class="mark-group role-scope layer_0_pathgroup" role="graphics-object" aria-roledescription="group mark container"><g transform="translate(0,0)"><path class="background" aria-hidden="true" d="M0,0h440v300h-440Z"/><g><g class="mark-line role-mark layer_0_marks" role="graphics-object" aria-roledescription="line mark container"><path aria-label="condition: no tests; Similarity to reference (%): 7.12084902431; leg: forward; forward_run_id: 20260909T005215Z_9a3e20fe" role="graphics-symbol" aria-roledescription="line mark" d="M41.905,278.637L83.81,136.84" stroke="grey" stroke-width="0.7" opacity="0.7"/></g></g><path class="foreground" aria-hidden="true" d="" display="none"/></g><g transform="translate(0,0)"><path class="background" aria-hidden="true" d="M0,0h440v300h-440Z"/><g><g class="mark-line role-mark layer_0_marks" role="graphics-object" aria-roledescription="line mark container"><path aria-label="condition: no tests; Similarity to reference (%): 35.1690821256; leg: forward; forward_run_id: 20260909T024849Z_b96078c6" role="graphics-symbol" aria-roledescription="line mark" d="M41.905,194.493L83.81,148.904" stroke="grey" stroke-width="0.7" opacity="0.7"/></g></g><path class="foreground" aria-hidden="true" d="" display="none"/></g><g transform="translate(0,0)"><path class="background" aria-hidden="true" d="M0,0h440v300h-440Z"/><g><g class="mark-line role-mark layer_0_marks" role="graphics-object" aria-roledescription="line mark container"><path aria-label="condition: no tests; Similarity to reference (%): 5.16169154229; leg: forward; forward_run_id: 20260909T130706Z_31ac2789" role="graphics-symbol" aria-roledescription="line mark" d="M41.905,284.515L83.81,155.441" stroke="grey" stroke-width="0.7" opacity="0.7"/></g></g><path class="foreground" aria-hidden="true" d="" display="none"/></g><g transform="translate(0,0)"><path class="background" aria-hidden="true" d="M0,0h440v300h-440Z"/><g><g class="mark-line role-mark layer_0_marks" role="graphics-object" aria-roledescription="line mark container"><path aria-label="condition: no tests; Similarity to reference (%): 1.19323831621; leg: forward; forward_run_id: 20260909T151143Z_170b737d" role="graphics-symbol" aria-roledescription="line mark" d="M41.905,296.42L83.81,120.685" stroke="grey" stroke-width="0.7" opacity="0.7"/></g></g><path class="foreground" aria-hidden="true" d="" display="none"/></g><g transform="translate(0,0)"><path class="background" aria-hidden="true" d="M0,0h440v300h-440Z"/><g><g class="mark-line role-mark layer_0_marks" role="graphics-object" aria-roledescription="line mark container"><path aria-label="condition: no tests; Similarity to reference (%): 38.5824139084; leg: forward; forward_run_id: 20260909T182714Z_2643e4be" role="graphics-symbol" aria-roledescription="line mark" d="M41.905,184.253L83.81,125.398" stroke="grey" stroke-width="0.7" opacity="0.7"/></g></g><path class="foreground" aria-hidden="true" d="" display="none"/></g><g transform="translate(0,0)"><path class="background" aria-hidden="true" d="M0,0h440v300h-440Z"/><g><g class="mark-line role-mark layer_0_marks" role="graphics-object" aria-roledescription="line mark container"><path aria-label="condition: source tests; Similarity to reference (%): 40.5589638718; leg: forward; forward_run_id: 20260909T002206Z_273cf6b9" role="graphics-symbol" aria-roledescription="line mark" d="M146.667,178.323L188.571,123.262" stroke="grey" stroke-width="0.7" opacity="0.7"/></g></g><path class="foreground" aria-hidden="true" d="" display="none"/></g><g transform="translate(0,0)"><path class="background" aria-hidden="true" d="M0,0h440v300h-440Z"/><g><g class="mark-line role-mark layer_0_marks" role="graphics-object" aria-roledescription="line mark container"><path aria-label="condition: source tests; Similarity to reference (%): 40.728021978; leg: forward; forward_run_id: 20260909T022216Z_19e0fe30" role="graphics-symbol" aria-roledescription="line mark" d="M146.667,177.816L188.571,146.258" stroke="grey" stroke-width="0.7" opacity="0.7"/></g></g><path class="foreground" aria-hidden="true" d="" display="none"/></g><g transform="translate(0,0)"><path class="background" aria-hidden="true" d="M0,0h440v300h-440Z"/><g><g class="mark-line role-mark layer_0_marks" role="graphics-object" aria-roledescription="line mark container"><path aria-label="condition: source tests; Similarity to reference (%): 40.5368203716; leg: forward; forward_run_id: 20260909T124157Z_4ee67ba2" role="graphics-symbol" aria-roledescription="line mark" d="M146.667,178.39L188.571,146.7" stroke="grey" stroke-width="0.7" opacity="0.7"/></g></g><path class="foreground" aria-hidden="true" d="" display="none"/></g><g transform="translate(0,0)"><path class="background" aria-hidden="true" d="M0,0h440v300h-440Z"/><g><g class="mark-line role-mark layer_0_marks" role="graphics-object" aria-roledescription="line mark container"><path aria-label="condition: source tests; Similarity to reference (%): 8.98123324397; leg: forward; forward_run_id: 20260909T144331Z_5b46f630" role="graphics-symbol" aria-roledescription="line mark" d="M146.667,273.056L188.571,140.72" stroke="grey" stroke-width="0.7" opacity="0.7"/></g></g><path class="foreground" aria-hidden="true" d="" display="none"/></g><g transform="translate(0,0)"><path class="background" aria-hidden="true" d="M0,0h440v300h-440Z"/><g><g class="mark-line role-mark layer_0_marks" role="graphics-object" aria-roledescription="line mark container"><path aria-label="condition: source tests; Similarity to reference (%): 40.8220132358; leg: forward; forward_run_id: 20260909T180307Z_280f3890" role="graphics-symbol" aria-roledescription="line mark" d="M146.667,177.534L188.571,159.152" stroke="grey" stroke-width="0.7" opacity="0.7"/></g></g><path class="foreground" aria-hidden="true" d="" display="none"/></g><g transform="translate(0,0)"><path class="background" aria-hidden="true" d="M0,0h440v300h-440Z"/><g><g class="mark-line role-mark layer_0_marks" role="graphics-object" aria-roledescription="line mark container"><path aria-label="condition: target tests; Similarity to reference (%): 43.4354100669; leg: forward; forward_run_id: 20260909T004354Z_a47a3057" role="graphics-symbol" aria-roledescription="line mark" d="M251.429,169.694L293.333,137.987" stroke="grey" stroke-width="0.7" opacity="0.7"/></g></g><path class="foreground" aria-hidden="true" d="" display="none"/></g><g transform="translate(0,0)"><path class="background" aria-hidden="true" d="M0,0h440v300h-440Z"/><g><g class="mark-line role-mark layer_0_marks" role="graphics-object" aria-roledescription="line mark container"><path aria-label="condition: target tests; Similarity to reference (%): 44.6153846154; leg: forward; forward_run_id: 20260909T023701Z_e94dca40" role="graphics-symbol" aria-roledescription="line mark" d="M251.429,166.154L293.333,141.379" stroke="grey" stroke-width="0.7" opacity="0.7"/></g></g><path class="foreground" aria-hidden="true" d="" display="none"/></g><g transform="translate(0,0)"><path class="background" aria-hidden="true" d="M0,0h440v300h-440Z"/><g><g class="mark-line role-mark layer_0_marks" role="graphics-object" aria-roledescription="line mark container"><path aria-label="condition: target tests; Similarity to reference (%): 43.3147632312; leg: forward; forward_run_id: 20260909T125752Z_09b2c811" role="graphics-symbol" aria-roledescription="line mark" d="M251.429,170.056L293.333,146.239" stroke="grey" stroke-width="0.7" opacity="0.7"/></g></g><path class="foreground" aria-hidden="true" d="" display="none"/></g><g transform="translate(0,0)"><path class="background" aria-hidden="true" d="M0,0h440v300h-440Z"/><g><g class="mark-line role-mark layer_0_marks" role="graphics-object" aria-roledescription="line mark container"><path aria-label="condition: target tests; Similarity to reference (%): 42.7279053584; leg: forward; forward_run_id: 20260909T150124Z_a7cd2ee9" role="graphics-symbol" aria-roledescription="line mark" d="M251.429,171.816L293.333,142.263" stroke="grey" stroke-width="0.7" opacity="0.7"/></g></g><path class="foreground" aria-hidden="true" d="" display="none"/></g><g transform="translate(0,0)"><path class="background" aria-hidden="true" d="M0,0h440v300h-440Z"/><g><g class="mark-line role-mark layer_0_marks" role="graphics-object" aria-roledescription="line mark container"><path aria-label="condition: target tests; Similarity to reference (%): 43.4205933682; leg: forward; forward_run_id: 20260909T181751Z_00b43b48" role="graphics-symbol" aria-roledescription="line mark" d="M251.429,169.738L293.333,140.898" stroke="grey" stroke-width="0.7" opacity="0.7"/></g></g><path class="foreground" aria-hidden="true" d="" display="none"/></g><g transform="translate(0,0)"><path class="background" aria-hidden="true" d="M0,0h440v300h-440Z"/><g><g class="mark-line role-mark layer_0_marks" role="graphics-object" aria-roledescription="line mark container"><path aria-label="condition: both tests; Similarity to reference (%): 41.1293133496; leg: forward; forward_run_id: 20260909T001426Z_1c28aa33" role="graphics-symbol" aria-roledescription="line mark" d="M356.19,176.612L398.095,137.087" stroke="grey" stroke-width="0.7" opacity="0.7"/></g></g><path class="foreground" aria-hidden="true" d="" display="none"/></g><g transform="translate(0,0)"><path class="background" aria-hidden="true" d="M0,0h440v300h-440Z"/><g><g class="mark-line role-mark layer_0_marks" role="graphics-object" aria-roledescription="line mark container"><path aria-label="condition: both tests; Similarity to reference (%): 41.5029300241; leg: forward; forward_run_id: 20260909T020947Z_ffb57550" role="graphics-symbol" aria-roledescription="line mark" d="M356.19,175.491L398.095,145.747" stroke="grey" stroke-width="0.7" opacity="0.7"/></g></g><path class="foreground" aria-hidden="true" d="" display="none"/></g><g transform="translate(0,0)"><path class="background" aria-hidden="true" d="M0,0h440v300h-440Z"/><g><g class="mark-line role-mark layer_0_marks" role="graphics-object" aria-roledescription="line mark container"><path aria-label="condition: both tests; Similarity to reference (%): 49.8218104063; leg: forward; forward_run_id: 20260909T123239Z_5982b634" role="graphics-symbol" aria-roledescription="line mark" d="M356.19,150.535L398.095,166.223" stroke="grey" stroke-width="0.7" opacity="0.7"/></g></g><path class="foreground" aria-hidden="true" d="" display="none"/></g><g transform="translate(0,0)"><path class="background" aria-hidden="true" d="M0,0h440v300h-440Z"/><g><g class="mark-line role-mark layer_0_marks" role="graphics-object" aria-roledescription="line mark container"><path aria-label="condition: both tests; Similarity to reference (%): 41.6140350877; leg: forward; forward_run_id: 20260909T142951Z_4ff7cdec" role="graphics-symbol" aria-roledescription="line mark" d="M356.19,175.158L398.095,153.329" stroke="grey" stroke-width="0.7" opacity="0.7"/></g></g><path class="foreground" aria-hidden="true" d="" display="none"/></g><g transform="translate(0,0)"><path class="background" aria-hidden="true" d="M0,0h440v300h-440Z"/><g><g class="mark-line role-mark layer_0_marks" role="graphics-object" aria-roledescription="line mark container"><path aria-label="condition: both tests; Similarity to reference (%): 41.545551223; leg: forward; forward_run_id: 20260909T175143Z_62b61540" role="graphics-symbol" aria-roledescription="line mark" d="M356.19,175.363L398.095,153.329" stroke="grey" stroke-width="0.7" opacity="0.7"/></g></g><path class="foreground" aria-hidden="true" d="" display="none"/></g></g><g class="mark-rect role-mark layer_1_marks" role="graphics-object" aria-roledescription="rect mark container"><path aria-label="condition: no tests; Similarity to reference (%): 7.12084902431; leg: forward" role="graphics-symbol" aria-roledescription="tick" d="M19.904761904761912,277.6374529270798h44v2h-44Z" fill="#0b0b0b" opacity="0.7"/><path aria-label="condition: source tests; Similarity to reference (%): 40.5589638718; leg: forward" role="graphics-symbol" aria-roledescription="tick" d="M124.66666666666669,177.3231083844581h44v2h-44Z" fill="#0b0b0b" opacity="0.7"/><path aria-label="condition: target tests; Similarity to reference (%): 43.4205933682; leg: forward" role="graphics-symbol" aria-roledescription="tick" d="M229.42857142857144,168.73821989528795h44v2h-44Z" fill="#0b0b0b" opacity="0.7"/><path aria-label="condition: both tests; Similarity to reference (%): 41.545551223; leg: forward" role="graphics-symbol" aria-roledescription="tick" d="M334.1904761904762,174.36334633108825h44v2h-44Z" fill="#0b0b0b" opacity="0.7"/><path aria-label="condition: no tests; Similarity to reference (%): 54.3865328585; leg: reverse" role="graphics-symbol" aria-roledescription="tick" d="M61.809523809523824,135.8404014244092h44v2h-44Z" fill="#0b0b0b" opacity="0.7"/><path aria-label="condition: source tests; Similarity to reference (%): 51.2473052048; leg: reverse" role="graphics-symbol" aria-roledescription="tick" d="M166.57142857142858,145.25808438558667h44v2h-44Z" fill="#0b0b0b" opacity="0.7"/><path aria-label="condition: target tests; Similarity to reference (%): 52.8735632184; leg: reverse" role="graphics-symbol" aria-roledescription="tick" d="M271.33333333333337,140.3793103448276h44v2h-44Z" fill="#0b0b0b" opacity="0.7"/><path aria-label="condition: both tests; Similarity to reference (%): 48.8903610467; leg: reverse" role="graphics-symbol" aria-roledescription="tick" d="M376.0952380952381,152.32891685988736h44v2h-44Z" fill="#0b0b0b" opacity="0.7"/></g><g class="mark-symbol role-mark layer_2_marks" role="graphics-object" aria-roledescription="symbol mark container"><path aria-label="condition: no tests; Similarity to reference (%): 7.12084902431; leg: forward; layout: rebuilt the file layout; forward run: 9a3e20fe; forward condition: no tests; forward: 7.12; reverse: 54.39; file layout: rebuilt the file layout" role="graphics-symbol" aria-roledescription="point" transform="translate(41.90476190476191,278.6374529270798)" d="M0,-3.354L-3.873,3.354L3.873,3.354Z" fill="#4c78a8" stroke-width="2" opacity="0.85"/><path aria-label="condition: no tests; Similarity to reference (%): 35.1690821256; leg: forward; layout: kept the file layout; forward run: b96078c6; forward condition: no tests; forward: 35.17; reverse: 50.37; file layout: kept the file layout" role="graphics-symbol" aria-roledescription="point" transform="translate(41.90476190476191,194.49275362318843)" d="M3.873,0A3.873,3.873,0,1,1,-3.873,0A3.873,3.873,0,1,1,3.873,0" fill="#4c78a8" stroke-width="2" opacity="0.85"/><path aria-label="condition: no tests; Similarity to reference (%): 5.16169154229; leg: forward; layout: rebuilt the file layout; forward run: 31ac2789; forward condition: no tests; forward: 5.16; reverse: 48.19; file layout: rebuilt the file layout" role="graphics-symbol" aria-roledescription="point" transform="translate(41.90476190476191,284.5149253731343)" d="M0,-3.354L-3.873,3.354L3.873,3.354Z" fill="#4c78a8" stroke-width="2" opacity="0.85"/><path aria-label="condition: no tests; Similarity to reference (%): 1.19323831621; leg: forward; layout: rebuilt the file layout; forward run: 170b737d; forward condition: no tests; forward: 1.19; reverse: 59.77; file layout: rebuilt the file layout" role="graphics-symbol" aria-roledescription="point" transform="translate(41.90476190476191,296.4202850513755)" d="M0,-3.354L-3.873,3.354L3.873,3.354Z" fill="#4c78a8" stroke-width="2" opacity="0.85"/><path aria-label="condition: no tests; Similarity to reference (%): 38.5824139084; leg: forward; layout: kept the file layout; forward run: 2643e4be; forward condition: no tests; forward: 38.58; reverse: 58.20; file layout: kept the file layout" role="graphics-symbol" aria-roledescription="point" transform="translate(41.90476190476191,184.25275827482446)" d="M3.873,0A3.873,3.873,0,1,1,-3.873,0A3.873,3.873,0,1,1,3.873,0" fill="#4c78a8" stroke-width="2" opacity="0.85"/><path aria-label="condition: source tests; Similarity to reference (%): 40.5589638718; leg: forward; layout: kept the file layout; forward run: 273cf6b9; forward condition: source tests; forward: 40.56; reverse: 58.91; file layout: kept the file layout" role="graphics-symbol" aria-roledescription="point" transform="translate(146.66666666666669,178.3231083844581)" d="M3.873,0A3.873,3.873,0,1,1,-3.873,0A3.873,3.873,0,1,1,3.873,0" fill="#4c78a8" stroke-width="2" opacity="0.85"/><path aria-label="condition: source tests; Similarity to reference (%): 40.728021978; leg: forward; layout: kept the file layout; forward run: 19e0fe30; forward condition: source tests; forward: 40.73; reverse: 51.25; file layout: kept the file layout" role="graphics-symbol" aria-roledescription="point" transform="translate(146.66666666666669,177.81593406593407)" d="M3.873,0A3.873,3.873,0,1,1,-3.873,0A3.873,3.873,0,1,1,3.873,0" fill="#4c78a8" stroke-width="2" opacity="0.85"/><path aria-label="condition: source tests; Similarity to reference (%): 40.5368203716; leg: forward; layout: kept the file layout; forward run: 4ee67ba2; forward condition: source tests; forward: 40.54; reverse: 51.10; file layout: kept the file layout" role="graphics-symbol" aria-roledescription="point" transform="translate(146.66666666666669,178.38953888506538)" d="M3.873,0A3.873,3.873,0,1,1,-3.873,0A3.873,3.873,0,1,1,3.873,0" fill="#4c78a8" stroke-width="2" opacity="0.85"/><path aria-label="condition: source tests; Similarity to reference (%): 8.98123324397; leg: forward; layout: rebuilt the file layout; forward run: 5b46f630; forward condition: source tests; forward: 8.98; reverse: 53.09; file layout: rebuilt the file layout" role="graphics-symbol" aria-roledescription="point" transform="translate(146.66666666666669,273.05630026809655)" d="M0,-3.354L-3.873,3.354L3.873,3.354Z" fill="#4c78a8" stroke-width="2" opacity="0.85"/><path aria-label="condition: source tests; Similarity to reference (%): 40.8220132358; leg: forward; layout: kept the file layout; forward run: 280f3890; forward condition: source tests; forward: 40.82; reverse: 46.95; file layout: kept the file layout" role="graphics-symbol" aria-roledescription="point" transform="translate(146.66666666666669,177.53396029258099)" d="M3.873,0A3.873,3.873,0,1,1,-3.873,0A3.873,3.873,0,1,1,3.873,0" fill="#4c78a8" stroke-width="2" opacity="0.85"/><path aria-label="condition: target tests; Similarity to reference (%): 43.4354100669; leg: forward; layout: kept the file layout; forward run: a47a3057; forward condition: target tests; forward: 43.44; reverse: 54.00; file layout: kept the file layout" role="graphics-symbol" aria-roledescription="point" transform="translate(251.42857142857144,169.69376979936644)" d="M3.873,0A3.873,3.873,0,1,1,-3.873,0A3.873,3.873,0,1,1,3.873,0" fill="#4c78a8" stroke-width="2" opacity="0.85"/><path aria-label="condition: target tests; Similarity to reference (%): 44.6153846154; leg: forward; layout: kept the file layout; forward run: e94dca40; forward condition: target tests; forward: 44.62; reverse: 52.87; file layout: kept the file layout" role="graphics-symbol" aria-roledescription="point" transform="translate(251.42857142857144,166.15384615384616)" d="M3.873,0A3.873,3.873,0,1,1,-3.873,0A3.873,3.873,0,1,1,3.873,0" fill="#4c78a8" stroke-width="2" opacity="0.85"/><path aria-label="condition: target tests; Similarity to reference (%): 43.3147632312; leg: forward; layout: kept the file layout; forward run: 09b2c811; forward condition: target tests; forward: 43.31; reverse: 51.25; file layout: kept the file layout" role="graphics-symbol" aria-roledescription="point" transform="translate(251.42857142857144,170.0557103064067)" d="M3.873,0A3.873,3.873,0,1,1,-3.873,0A3.873,3.873,0,1,1,3.873,0" fill="#4c78a8" stroke-width="2" opacity="0.85"/><path aria-label="condition: target tests; Similarity to reference (%): 42.7279053584; leg: forward; layout: kept the file layout; forward run: a7cd2ee9; forward condition: target tests; forward: 42.73; reverse: 52.58; file layout: kept the file layout" role="graphics-symbol" aria-roledescription="point" transform="translate(251.42857142857144,171.81628392484342)" d="M3.873,0A3.873,3.873,0,1,1,-3.873,0A3.873,3.873,0,1,1,3.873,0" fill="#4c78a8" stroke-width="2" opacity="0.85"/><path aria-label="condition: target tests; Similarity to reference (%): 43.4205933682; leg: forward; layout: kept the file layout; forward run: 00b43b48; forward condition: target tests; forward: 43.42; reverse: 53.03; file layout: kept the file layout" role="graphics-symbol" aria-roledescription="point" transform="translate(251.42857142857144,169.73821989528795)" d="M3.873,0A3.873,3.873,0,1,1,-3.873,0A3.873,3.873,0,1,1,3.873,0" fill="#4c78a8" stroke-width="2" opacity="0.85"/><path aria-label="condition: both tests; Similarity to reference (%): 41.1293133496; leg: forward; layout: kept the file layout; forward run: 1c28aa33; forward condition: both tests; forward: 41.13; reverse: 54.30; file layout: kept the file layout" role="graphics-symbol" aria-roledescription="point" transform="translate(356.1904761904762,176.61205995120247)" d="M3.873,0A3.873,3.873,0,1,1,-3.873,0A3.873,3.873,0,1,1,3.873,0" fill="#4c78a8" stroke-width="2" opacity="0.85"/><path aria-label="condition: both tests; Similarity to reference (%): 41.5029300241; leg: forward; layout: kept the file layout; forward run: ffb57550; forward condition: both tests; forward: 41.50; reverse: 51.42; file layout: kept the file layout" role="graphics-symbol" aria-roledescription="point" transform="translate(356.1904761904762,175.49120992761115)" d="M3.873,0A3.873,3.873,0,1,1,-3.873,0A3.873,3.873,0,1,1,3.873,0" fill="#4c78a8" stroke-width="2" opacity="0.85"/><path aria-label="condition: both tests; Similarity to reference (%): 49.8218104063; leg: forward; layout: kept the file layout; forward run: 5982b634; forward condition: both tests; forward: 49.82; reverse: 44.59; file layout: kept the file layout" role="graphics-symbol" aria-roledescription="point" transform="translate(356.1904761904762,150.5345687811832)" d="M3.873,0A3.873,3.873,0,1,1,-3.873,0A3.873,3.873,0,1,1,3.873,0" fill="#4c78a8" stroke-width="2" opacity="0.85"/><path aria-label="condition: both tests; Similarity to reference (%): 41.6140350877; leg: forward; layout: kept the file layout; forward run: 4ff7cdec; forward condition: both tests; forward: 41.61; reverse: 48.89; file layout: kept the file layout" role="graphics-symbol" aria-roledescription="point" transform="translate(356.1904761904762,175.15789473684208)" d="M3.873,0A3.873,3.873,0,1,1,-3.873,0A3.873,3.873,0,1,1,3.873,0" fill="#4c78a8" stroke-width="2" opacity="0.85"/><path aria-label="condition: both tests; Similarity to reference (%): 41.545551223; leg: forward; layout: kept the file layout; forward run: 62b61540; forward condition: both tests; forward: 41.55; reverse: 48.89; file layout: kept the file layout" role="graphics-symbol" aria-roledescription="point" transform="translate(356.1904761904762,175.36334633108825)" d="M3.873,0A3.873,3.873,0,1,1,-3.873,0A3.873,3.873,0,1,1,3.873,0" fill="#4c78a8" stroke-width="2" opacity="0.85"/><path aria-label="condition: no tests; Similarity to reference (%): 54.3865328585; leg: reverse; layout: kept the file layout; forward run: 9a3e20fe; forward condition: no tests; forward: 7.12; reverse: 54.39; file layout: kept the file layout" role="graphics-symbol" aria-roledescription="point" transform="translate(83.80952380952382,136.8404014244092)" d="M3.873,0A3.873,3.873,0,1,1,-3.873,0A3.873,3.873,0,1,1,3.873,0" fill="#f58518" stroke-width="2" opacity="0.85"/><path aria-label="condition: no tests; Similarity to reference (%): 50.3653738055; leg: reverse; layout: kept the file layout; forward run: b96078c6; forward condition: no tests; forward: 35.17; reverse: 50.37; file layout: kept the file layout" role="graphics-symbol" aria-roledescription="point" transform="translate(83.80952380952382,148.90387858347387)" d="M3.873,0A3.873,3.873,0,1,1,-3.873,0A3.873,3.873,0,1,1,3.873,0" fill="#f58518" stroke-width="2" opacity="0.85"/><path aria-label="condition: no tests; Similarity to reference (%): 48.1863913159; leg: reverse; layout: kept the file layout; forward run: 31ac2789; forward condition: no tests; forward: 5.16; reverse: 48.19; file layout: kept the file layout" role="graphics-symbol" aria-roledescription="point" transform="translate(83.80952380952382,155.44082605242255)" d="M3.873,0A3.873,3.873,0,1,1,-3.873,0A3.873,3.873,0,1,1,3.873,0" fill="#f58518" stroke-width="2" opacity="0.85"/><path aria-label="condition: no tests; Similarity to reference (%): 59.7716150082; leg: reverse; layout: kept the file layout; forward run: 170b737d; forward condition: no tests; forward: 1.19; reverse: 59.77; file layout: kept the file layout" role="graphics-symbol" aria-roledescription="point" transform="translate(83.80952380952382,120.68515497553017)" d="M3.873,0A3.873,3.873,0,1,1,-3.873,0A3.873,3.873,0,1,1,3.873,0" fill="#f58518" stroke-width="2" opacity="0.85"/><path aria-label="condition: no tests; Similarity to reference (%): 58.2007343941; leg: reverse; layout: kept the file layout; forward run: 2643e4be; forward condition: no tests; forward: 38.58; reverse: 58.20; file layout: kept the file layout" role="graphics-symbol" aria-roledescription="point" transform="translate(83.80952380952382,125.39779681762548)" d="M3.873,0A3.873,3.873,0,1,1,-3.873,0A3.873,3.873,0,1,1,3.873,0" fill="#f58518" stroke-width="2" opacity="0.85"/><path aria-label="condition: source tests; Similarity to reference (%): 58.9127686473; leg: reverse; layout: kept the file layout; forward run: 273cf6b9; forward condition: source tests; forward: 40.56; reverse: 58.91; file layout: kept the file layout" role="graphics-symbol" aria-roledescription="point" transform="translate(188.57142857142858,123.26169405815423)" d="M3.873,0A3.873,3.873,0,1,1,-3.873,0A3.873,3.873,0,1,1,3.873,0" fill="#f58518" stroke-width="2" opacity="0.85"/><path aria-label="condition: source tests; Similarity to reference (%): 51.2473052048; leg: reverse; layout: kept the file layout; forward run: 19e0fe30; forward condition: source tests; forward: 40.73; reverse: 51.25; file layout: kept the file layout" role="graphics-symbol" aria-roledescription="point" transform="translate(188.57142857142858,146.25808438558667)" d="M3.873,0A3.873,3.873,0,1,1,-3.873,0A3.873,3.873,0,1,1,3.873,0" fill="#f58518" stroke-width="2" opacity="0.85"/><path aria-label="condition: source tests; Similarity to reference (%): 51.0999371464; leg: reverse; layout: kept the file layout; forward run: 4ee67ba2; forward condition: source tests; forward: 40.54; reverse: 51.10; file layout: kept the file layout" role="graphics-symbol" aria-roledescription="point" transform="translate(188.57142857142858,146.7001885606537)" d="M3.873,0A3.873,3.873,0,1,1,-3.873,0A3.873,3.873,0,1,1,3.873,0" fill="#f58518" stroke-width="2" opacity="0.85"/><path aria-label="condition: source tests; Similarity to reference (%): 53.0934343434; leg: reverse; layout: kept the file layout; forward run: 5b46f630; forward condition: source tests; forward: 8.98; reverse: 53.09; file layout: kept the file layout" role="graphics-symbol" aria-roledescription="point" transform="translate(188.57142857142858,140.71969696969697)" d="M3.873,0A3.873,3.873,0,1,1,-3.873,0A3.873,3.873,0,1,1,3.873,0" fill="#f58518" stroke-width="2" opacity="0.85"/><path aria-label="condition: source tests; Similarity to reference (%): 46.9492614001; leg: reverse; layout: kept the file layout; forward run: 280f3890; forward condition: source tests; forward: 40.82; reverse: 46.95; file layout: kept the file layout" role="graphics-symbol" aria-roledescription="point" transform="translate(188.57142857142858,159.15221579961465)" d="M3.873,0A3.873,3.873,0,1,1,-3.873,0A3.873,3.873,0,1,1,3.873,0" fill="#f58518" stroke-width="2" opacity="0.85"/><path aria-label="condition: target tests; Similarity to reference (%): 54.0044317822; leg: reverse; layout: kept the file layout; forward run: a47a3057; forward condition: target tests; forward: 43.44; reverse: 54.00; file layout: kept the file layout" role="graphics-symbol" aria-roledescription="point" transform="translate(293.33333333333337,137.9867046533713)" d="M3.873,0A3.873,3.873,0,1,1,-3.873,0A3.873,3.873,0,1,1,3.873,0" fill="#f58518" stroke-width="2" opacity="0.85"/><path aria-label="condition: target tests; Similarity to reference (%): 52.8735632184; leg: reverse; layout: kept the file layout; forward run: e94dca40; forward condition: target tests; forward: 44.62; reverse: 52.87; file layout: kept the file layout" role="graphics-symbol" aria-roledescription="point" transform="translate(293.33333333333337,141.3793103448276)" d="M3.873,0A3.873,3.873,0,1,1,-3.873,0A3.873,3.873,0,1,1,3.873,0" fill="#f58518" stroke-width="2" opacity="0.85"/><path aria-label="condition: target tests; Similarity to reference (%): 51.2536633019; leg: reverse; layout: kept the file layout; forward run: 09b2c811; forward condition: target tests; forward: 43.31; reverse: 51.25; file layout: kept the file layout" role="graphics-symbol" aria-roledescription="point" transform="translate(293.33333333333337,146.2390100944318)" d="M3.873,0A3.873,3.873,0,1,1,-3.873,0A3.873,3.873,0,1,1,3.873,0" fill="#f58518" stroke-width="2" opacity="0.85"/><path aria-label="condition: target tests; Similarity to reference (%): 52.5790349418; leg: reverse; layout: kept the file layout; forward run: a7cd2ee9; forward condition: target tests; forward: 42.73; reverse: 52.58; file layout: kept the file layout" role="graphics-symbol" aria-roledescription="point" transform="translate(293.33333333333337,142.26289517470883)" d="M3.873,0A3.873,3.873,0,1,1,-3.873,0A3.873,3.873,0,1,1,3.873,0" fill="#f58518" stroke-width="2" opacity="0.85"/><path aria-label="condition: target tests; Similarity to reference (%): 53.0341340076; leg: reverse; layout: kept the file layout; forward run: 00b43b48; forward condition: target tests; forward: 43.42; reverse: 53.03; file layout: kept the file layout" role="graphics-symbol" aria-roledescription="point" transform="translate(293.33333333333337,140.897597977244)" d="M3.873,0A3.873,3.873,0,1,1,-3.873,0A3.873,3.873,0,1,1,3.873,0" fill="#f58518" stroke-width="2" opacity="0.85"/><path aria-label="condition: both tests; Similarity to reference (%): 54.3042071197; leg: reverse; layout: kept the file layout; forward run: 1c28aa33; forward condition: both tests; forward: 41.13; reverse: 54.30; file layout: kept the file layout" role="graphics-symbol" aria-roledescription="point" transform="translate(398.0952380952381,137.0873786407767)" d="M3.873,0A3.873,3.873,0,1,1,-3.873,0A3.873,3.873,0,1,1,3.873,0" fill="#f58518" stroke-width="2" opacity="0.85"/><path aria-label="condition: both tests; Similarity to reference (%): 51.4176489328; leg: reverse; layout: kept the file layout; forward run: ffb57550; forward condition: both tests; forward: 41.50; reverse: 51.42; file layout: kept the file layout" role="graphics-symbol" aria-roledescription="point" transform="translate(398.0952380952381,145.74705320165657)" d="M3.873,0A3.873,3.873,0,1,1,-3.873,0A3.873,3.873,0,1,1,3.873,0" fill="#f58518" stroke-width="2" opacity="0.85"/><path aria-label="condition: both tests; Similarity to reference (%): 44.5924516334; leg: reverse; layout: kept the file layout; forward run: 5982b634; forward condition: both tests; forward: 49.82; reverse: 44.59; file layout: kept the file layout" role="graphics-symbol" aria-roledescription="point" transform="translate(398.0952380952381,166.22264509990487)" d="M3.873,0A3.873,3.873,0,1,1,-3.873,0A3.873,3.873,0,1,1,3.873,0" fill="#f58518" stroke-width="2" opacity="0.85"/><path aria-label="condition: both tests; Similarity to reference (%): 48.8903184304; leg: reverse; layout: kept the file layout; forward run: 4ff7cdec; forward condition: both tests; forward: 41.61; reverse: 48.89; file layout: kept the file layout" role="graphics-symbol" aria-roledescription="point" transform="translate(398.0952380952381,153.32904470890963)" d="M3.873,0A3.873,3.873,0,1,1,-3.873,0A3.873,3.873,0,1,1,3.873,0" fill="#f58518" stroke-width="2" opacity="0.85"/><path aria-label="condition: both tests; Similarity to reference (%): 48.8903610467; leg: reverse; layout: kept the file layout; forward run: 62b61540; forward condition: both tests; forward: 41.55; reverse: 48.89; file layout: kept the file layout" role="graphics-symbol" aria-roledescription="point" transform="translate(398.0952380952381,153.32891685988736)" d="M3.873,0A3.873,3.873,0,1,1,-3.873,0A3.873,3.873,0,1,1,3.873,0" fill="#f58518" stroke-width="2" opacity="0.85"/></g><g class="mark-group role-legend" role="graphics-symbol" aria-roledescription="legend" aria-label="Symbol legend for fill color with 2 values: forward, reverse"><g transform="translate(458,0)"><path class="background" aria-hidden="true" d="M0,0h50v24h-50Z" pointer-events="none"/><g><g class="mark-group role-legend-entry"><g transform="translate(0,0)"><path class="background" aria-hidden="true" d="M0,0h0v0h0Z" pointer-events="none"/><g><g class="mark-group role-scope" role="graphics-object" aria-roledescription="group mark container"><g transform="translate(0,0)"><path class="background" aria-hidden="true" d="M0,0h49.3447265625v11h-49.3447265625Z" pointer-events="none" opacity="1"/><g><g class="mark-symbol role-legend-symbol" pointer-events="none"><path transform="translate(6,6)" d="M5,0A5,5,0,1,1,-5,0A5,5,0,1,1,5,0" fill="#4c78a8" stroke-width="1.5" opacity="0.85"/></g><g class="mark-text role-legend-label" pointer-events="none"><text text-anchor="start" transform="translate(16,9)" font-family="sans-serif" font-size="10px" fill="#000" opacity="1">forward</text></g></g><path class="foreground" aria-hidden="true" d="" pointer-events="none" display="none"/></g><g transform="translate(0,13)"><path class="background" aria-hidden="true" d="M0,0h49.3447265625v11h-49.3447265625Z" pointer-events="none" opacity="1"/><g><g class="mark-symbol role-legend-symbol" pointer-events="none"><path transform="translate(6,6)" d="M5,0A5,5,0,1,1,-5,0A5,5,0,1,1,5,0" fill="#f58518" stroke-width="1.5" opacity="0.85"/></g><g class="mark-text role-legend-label" pointer-events="none"><text text-anchor="start" transform="translate(16,9)" font-family="sans-serif" font-size="10px" fill="#000" opacity="1">reverse</text></g></g><path class="foreground" aria-hidden="true" d="" pointer-events="none" display="none"/></g></g></g><path class="foreground" aria-hidden="true" d="" pointer-events="none" display="none"/></g></g></g><path class="foreground" aria-hidden="true" d="" pointer-events="none" display="none"/></g></g><g class="mark-group role-legend" role="graphics-symbol" aria-roledescription="legend" aria-label="Symbol legend titled 'file layout rebuilt: under 10 files kept at their reference path' for shape with 2 values: kept the file layout, rebuilt the file layout"><g transform="translate(458,32)"><path class="background" aria-hidden="true" d="M0,0h256v56h-256Z" pointer-events="none"/><g><g class="mark-group role-legend-entry"><g transform="translate(0,29)"><path class="background" aria-hidden="true" d="M0,0h0v0h0Z" pointer-events="none"/><g><g class="mark-group role-scope" role="graphics-object" aria-roledescription="group mark container"><g transform="translate(0,0)"><path class="background" aria-hidden="true" d="M0,0h104.9404296875v12.5h-104.9404296875Z" pointer-events="none" opacity="1"/><g><g class="mark-symbol role-legend-symbol" pointer-events="none"><path transform="translate(6,6)" d="M5,0A5,5,0,1,1,-5,0A5,5,0,1,1,5,0" fill="black" fill-opacity="0.85" stroke-width="1.5" opacity="0.85"/></g><g class="mark-text role-legend-label" pointer-events="none"><text text-anchor="start" transform="translate(16,9)" font-family="sans-serif" font-size="10px" fill="#000" opacity="1">kept the file layout</text></g></g><path class="foreground" aria-hidden="true" d="" pointer-events="none" display="none"/></g><g transform="translate(0,15)"><path class="background" aria-hidden="true" d="M0,0h104.9404296875v11.830127018922191h-104.9404296875Z" pointer-events="none" opacity="1"/><g><g class="mark-symbol role-legend-symbol" pointer-events="none"><path transform="translate(6,6)" d="M0,-4.33L-5,4.33L5,4.33Z" fill="black" fill-opacity="0.85" stroke-width="1.5" opacity="0.85"/></g><g class="mark-text role-legend-label" pointer-events="none"><text text-anchor="start" transform="translate(16,9)" font-family="sans-serif" font-size="10px" fill="#000" opacity="1">rebuilt the file layout</text></g></g><path class="foreground" aria-hidden="true" d="" pointer-events="none" display="none"/></g></g></g><path class="foreground" aria-hidden="true" d="" pointer-events="none" display="none"/></g></g><g class="mark-text role-legend-title" pointer-events="none"><text text-anchor="start" transform="translate(0,9)" font-family="sans-serif" font-size="11px" font-weight="bold" fill="#000" opacity="1"><tspan>file layout</tspan><tspan x="0" dy="13">rebuilt: under 10 files kept at their reference path</tspan></text></g></g><path class="foreground" aria-hidden="true" d="" pointer-events="none" display="none"/></g></g><g class="mark-group role-title"><g transform="translate(-38.6845703125,-20)"><path class="background" aria-hidden="true" d="M0,0h0v0h0Z" pointer-events="none"/><g><g class="mark-text role-title-text" role="graphics-symbol" aria-roledescription="title" aria-label="Title text 'Similarity to reference (%): each run's forward and reverse leg'" pointer-events="none"><text text-anchor="start" transform="translate(0,9)" font-family="sans-serif" font-size="11px" font-weight="bold" fill="#0b0b0b" opacity="1">Similarity to reference (%): each run's forward and reverse leg</text></g></g><path class="foreground" aria-hidden="true" d="" pointer-events="none" display="none"/></g></g></g><path class="foreground" aria-hidden="true" d="" display="none"/></g></g></g></svg>