<svg xmlns="http://www.w3.org/2000/svg" xmlns:xlink="http://www.w3.org/1999/xlink" version="1.1" class="marks" width="592" height="386" viewBox="0 0 592 386"><rect width="592" height="386" fill="white"/><g fill="none" stroke-miterlimit="10" transform="translate(44,20)"><g class="mark-group role-frame root" role="graphics-object" aria-roledescription="group mark container"><g transform="translate(0,0)"><path class="background" aria-hidden="true" d="M0.5,0.5h440v300h-440Z" stroke="#ddd"/><g><g class="mark-group role-axis" aria-hidden="true"><g transform="translate(0.5,0.5)"><path class="background" aria-hidden="true" d="M0,0h0v0h0Z" pointer-events="none"/><g><g class="mark-rule role-axis-grid" pointer-events="none"><line transform="translate(0,286)" x2="440" y2="0" stroke="#ddd" stroke-width="1" opacity="1"/><line transform="translate(0,259)" x2="440" y2="0" stroke="#ddd" stroke-width="1" opacity="1"/><line transform="translate(0,232)" x2="440" y2="0" stroke="#ddd" stroke-width="1" opacity="1"/><line transform="translate(0,205)" x2="440" y2="0" stroke="#ddd" stroke-width="1" opacity="1"/><line transform="translate(0,177)" x2="440" y2="0" stroke="#ddd" stroke-width="1" opacity="1"/><line transform="translate(0,150)" x2="440" y2="0" stroke="#ddd" stroke-width="1" opacity="1"/><line transform="translate(0,123)" x2="440" y2="0" stroke="#ddd" stroke-width="1" opacity="1"/><line transform="translate(0,95)" x2="440" y2="0" stroke="#ddd" stroke-width="1" opacity="1"/><line transform="translate(0,68)" x2="440" y2="0" stroke="#ddd" stroke-width="1" opacity="1"/><line transform="translate(0,41)" x2="440" y2="0" stroke="#ddd" stroke-width="1" opacity="1"/><line transform="translate(0,14)" x2="440" y2="0" stroke="#ddd" stroke-width="1" opacity="1"/></g></g><path class="foreground" aria-hidden="true" d="" pointer-events="none" display="none"/></g></g><g class="mark-group role-axis" role="graphics-symbol" aria-roledescription="axis" aria-label="X-axis for a discrete scale with 4 values: no tests, source tests, target tests, both tests"><g transform="translate(0.5,300.5)"><path class="background" aria-hidden="true" d="M0,0h0v0h0Z" pointer-events="none"/><g><g class="mark-rule role-axis-tick" pointer-events="none"><line transform="translate(55,0)" x2="0" y2="5" stroke="#888" stroke-width="1" opacity="1"/><line transform="translate(165,0)" x2="0" y2="5" stroke="#888" stroke-width="1" opacity="1"/><line transform="translate(275,0)" x2="0" y2="5" stroke="#888" stroke-width="1" opacity="1"/><line transform="translate(385,0)" x2="0" y2="5" stroke="#888" stroke-width="1" opacity="1"/></g><g class="mark-text role-axis-label" pointer-events="none"><text text-anchor="end" transform="translate(54.5,7) rotate(270) translate(0,3)" font-family="sans-serif" font-size="10px" fill="#000" opacity="1">no tests</text><text text-anchor="end" transform="translate(164.5,7) rotate(270) translate(0,3)" font-family="sans-serif" font-size="10px" fill="#000" opacity="1">source tests</text><text text-anchor="end" transform="translate(274.5,7) rotate(270) translate(0,3)" font-family="sans-serif" font-size="10px" fill="#000" opacity="1">target tests</text><text text-anchor="end" transform="translate(384.5,7) rotate(270) translate(0,3)" font-family="sans-serif" font-size="10px" fill="#000" opacity="1">both tests</text></g><g class="mark-rule role-axis-domain" pointer-events="none"><line transform="translate(0,0)" x2="440" y2="0" stroke="#888" stroke-width="1" opacity="1"/></g></g><path class="foreground" aria-hidden="true" d="" pointer-events="none" display="none"/></g></g><g class="mark-group role-axis" role="graphics-symbol" aria-roledescription="axis" aria-label="Y-axis titled 'Integration tests passing (%)' for a linear scale with values from −5 to 105"><g transform="translate(0.5,0.5)"><path class="background" aria-hidden="true" d="M0,0h0v0h0Z" pointer-events="none"/><g><g class="mark-rule role-axis-tick" pointer-events="none"><line transform="translate(0,286)" x2="-5" y2="0" stroke="#888" stroke-width="1" opacity="1"/><line transform="translate(0,259)" x2="-5" y2="0" stroke="#888" stroke-width="1" opacity="1"/><line transform="translate(0,232)" x2="-5" y2="0" stroke="#888" stroke-width="1" opacity="1"/><line transform="translate(0,205)" x2="-5" y2="0" stroke="#888" stroke-width="1" opacity="1"/><line transform="translate(0,177)" x2="-5" y2="0" stroke="#888" stroke-width="1" opacity="1"/><line transform="translate(0,150)" x2="-5" y2="0" stroke="#888" stroke-width="1" opacity="1"/><line transform="translate(0,123)" x2="-5" y2="0" stroke="#888" stroke-width="1" opacity="1"/><line transform="translate(0,95)" x2="-5" y2="0" stroke="#888" stroke-width="1" opacity="1"/><line transform="translate(0,68)" x2="-5" y2="0" stroke="#888" stroke-width="1" opacity="1"/><line transform="translate(0,41)" x2="-5" y2="0" stroke="#888" stroke-width="1" opacity="1"/><line transform="translate(0,14)" x2="-5" y2="0" stroke="#888" stroke-width="1" opacity="1"/></g><g class="mark-text role-axis-label" pointer-events="none"><text text-anchor="end" transform="translate(-7,289.3636363636364)" font-family="sans-serif" font-size="10px" fill="#000" opacity="1">0</text><text text-anchor="end" transform="translate(-7,262.0909090909091)" font-family="sans-serif" font-size="10px" fill="#000" opacity="1">10</text><text text-anchor="end" transform="translate(-7,234.8181818181818)" font-family="sans-serif" font-size="10px" fill="#000" opacity="1">20</text><text text-anchor="end" transform="translate(-7,207.54545454545456)" font-family="sans-serif" font-size="10px" fill="#000" opacity="1">30</text><text text-anchor="end" transform="translate(-7,180.27272727272725)" font-family="sans-serif" font-size="10px" fill="#000" opacity="1">40</text><text text-anchor="end" transform="translate(-7,153)" font-family="sans-serif" font-size="10px" fill="#000" opacity="1">50</text><text text-anchor="end" transform="translate(-7,125.72727272727272)" font-family="sans-serif" font-size="10px" fill="#000" opacity="1">60</text><text text-anchor="end" transform="translate(-7,98.45454545454547)" font-family="sans-serif" font-size="10px" fill="#000" opacity="1">70</text><text text-anchor="end" transform="translate(-7,71.18181818181819)" font-family="sans-serif" font-size="10px" fill="#000" opacity="1">80</text><text text-anchor="end" transform="translate(-7,43.90909090909091)" font-family="sans-serif" font-size="10px" fill="#000" opacity="1">90</text><text text-anchor="end" transform="translate(-7,16.636363636363626)" font-family="sans-serif" font-size="10px" fill="#000" opacity="1">100</text></g><g class="mark-rule role-axis-domain" pointer-events="none"><line transform="translate(0,300)" x2="0" y2="-300" stroke="#888" stroke-width="1" opacity="1"/></g><g class="mark-text role-axis-title" pointer-events="none"><text text-anchor="middle" transform="translate(-27.6845703125,150) rotate(-90) translate(0,-2)" font-family="sans-serif" font-size="11px" font-weight="bold" fill="#000" opacity="1">Integration tests passing (%)</text></g></g><path class="foreground" aria-hidden="true" d="" pointer-events="none" display="none"/></g></g><g class="mark-rect role-mark layer_0_marks" role="graphics-object" aria-roledescription="rect mark container"><path aria-label="condition: no tests; Integration tests passing (%): 0; offset: 21.25; series: before the shim" role="graphics-symbol" aria-roledescription="tick" d="M23,285.3636363636364h24v2h-24Z" fill="#eb6834" opacity="0.7"/><path aria-label="condition: source tests; Integration tests passing (%): 100; offset: 21.25; series: before the shim" role="graphics-symbol" aria-roledescription="tick" d="M133,12.636363636363624h24v2h-24Z" fill="#eb6834" opacity="0.7"/><path aria-label="condition: target tests; Integration tests passing (%): 100; offset: 21.25; series: before the shim" role="graphics-symbol" aria-roledescription="tick" d="M243,12.636363636363624h24v2h-24Z" fill="#eb6834" opacity="0.7"/><path aria-label="condition: both tests; Integration tests passing (%): 100; offset: 21.25; series: before the shim" role="graphics-symbol" aria-roledescription="tick" d="M353,12.636363636363624h24v2h-24Z" fill="#eb6834" opacity="0.7"/><path aria-label="condition: no tests; Integration tests passing (%): 100; offset: 61.25; series: after the shim" role="graphics-symbol" aria-roledescription="tick" d="M63,12.636363636363624h24v2h-24Z" fill="#2a78d6" opacity="0.7"/><path aria-label="condition: source tests; Integration tests passing (%): 100; offset: 61.25; series: after the shim" role="graphics-symbol" aria-roledescription="tick" d="M173,12.636363636363624h24v2h-24Z" fill="#2a78d6" opacity="0.7"/><path aria-label="condition: target tests; Integration tests passing (%): 100; offset: 61.25; series: after the shim" role="graphics-symbol" aria-roledescription="tick" d="M283,12.636363636363624h24v2h-24Z" fill="#2a78d6" opacity="0.7"/><path aria-label="condition: both tests; Integration tests passing (%): 100; offset: 61.25; series: after the shim" role="graphics-symbol" aria-roledescription="tick" d="M393,12.636363636363624h24v2h-24Z" fill="#2a78d6" opacity="0.7"/></g><g class="mark-symbol role-mark layer_1_marks" role="graphics-object" aria-roledescription="symbol mark container"><path aria-label="condition: no tests; Integration tests passing (%): 100; offset: 18.25; series: before the shim; run: 2da5a2c0; passing (%): 100.0" role="graphics-symbol" aria-roledescription="point" transform="translate(32,13.636363636363624)" d="M3.708,0A3.708,3.708,0,1,1,-3.708,0A3.708,3.708,0,1,1,3.708,0" fill="#eb6834" stroke-width="2" opacity="0.85"/><path aria-label="condition: no tests; Integration tests passing (%): 100; offset: 24.25; series: before the shim; run: 2d7fbef6; passing (%): 100.0" role="graphics-symbol" aria-roledescription="point" transform="translate(38,13.636363636363624)" d="M3.708,0A3.708,3.708,0,1,1,-3.708,0A3.708,3.708,0,1,1,3.708,0" fill="#eb6834" stroke-width="2" opacity="0.85"/><path aria-label="condition: no tests; Integration tests passing (%): 0; offset: 15.25; series: before the shim; run: f8ca89ff; passing (%): 0.0" role="graphics-symbol" aria-roledescription="point" transform="translate(29,286.3636363636364)" d="M3.708,0A3.708,3.708,0,1,1,-3.708,0A3.708,3.708,0,1,1,3.708,0" fill="#eb6834" stroke-width="2" opacity="0.85"/><path aria-label="condition: no tests; Integration tests passing (%): 0; offset: 21.25; series: before the shim; run: 670261ce; passing (%): 0.0" role="graphics-symbol" aria-roledescription="point" transform="translate(35,286.3636363636364)" d="M3.708,0A3.708,3.708,0,1,1,-3.708,0A3.708,3.708,0,1,1,3.708,0" fill="#eb6834" stroke-width="2" opacity="0.85"/><path aria-label="condition: no tests; Integration tests passing (%): 0; offset: 27.25; series: before the shim; run: 8e3da990; passing (%): 0.0" role="graphics-symbol" aria-roledescription="point" transform="translate(41,286.3636363636364)" d="M3.708,0A3.708,3.708,0,1,1,-3.708,0A3.708,3.708,0,1,1,3.708,0" fill="#eb6834" stroke-width="2" opacity="0.85"/><path aria-label="condition: source tests; Integration tests passing (%): 100; offset: 9.25; series: before the shim; run: 054a84ca; passing (%): 100.0" role="graphics-symbol" aria-roledescription="point" transform="translate(133,13.636363636363624)" d="M3.708,0A3.708,3.708,0,1,1,-3.708,0A3.708,3.708,0,1,1,3.708,0" fill="#eb6834" stroke-width="2" opacity="0.85"/><path aria-label="condition: source tests; Integration tests passing (%): 100; offset: 15.25; series: before the shim; run: 0947f229; passing (%): 100.0" role="graphics-symbol" aria-roledescription="point" transform="translate(139,13.636363636363624)" d="M3.708,0A3.708,3.708,0,1,1,-3.708,0A3.708,3.708,0,1,1,3.708,0" fill="#eb6834" stroke-width="2" opacity="0.85"/><path aria-label="condition: source tests; Integration tests passing (%): 100; offset: 21.25; series: before the shim; run: 3f62598c; passing (%): 100.0" role="graphics-symbol" aria-roledescription="point" transform="translate(145,13.636363636363624)" d="M3.708,0A3.708,3.708,0,1,1,-3.708,0A3.708,3.708,0,1,1,3.708,0" fill="#eb6834" stroke-width="2" opacity="0.85"/><path aria-label="condition: source tests; Integration tests passing (%): 100; offset: 27.25; series: before the shim; run: 461ef9c5; passing (%): 100.0" role="graphics-symbol" aria-roledescription="point" transform="translate(151,13.636363636363624)" d="M3.708,0A3.708,3.708,0,1,1,-3.708,0A3.708,3.708,0,1,1,3.708,0" fill="#eb6834" stroke-width="2" opacity="0.85"/><path aria-label="condition: source tests; Integration tests passing (%): 100; offset: 33.25; series: before the shim; run: 7c1544c0; passing (%): 100.0" role="graphics-symbol" aria-roledescription="point" transform="translate(157,13.636363636363624)" d="M3.708,0A3.708,3.708,0,1,1,-3.708,0A3.708,3.708,0,1,1,3.708,0" fill="#eb6834" stroke-width="2" opacity="0.85"/><path aria-label="condition: target tests; Integration tests passing (%): 100; offset: 9.25; series: before the shim; run: fbe56704; passing (%): 100.0" role="graphics-symbol" aria-roledescription="point" transform="translate(243,13.636363636363624)" d="M3.708,0A3.708,3.708,0,1,1,-3.708,0A3.708,3.708,0,1,1,3.708,0" fill="#eb6834" stroke-width="2" opacity="0.85"/><path aria-label="condition: target tests; Integration tests passing (%): 100; offset: 15.25; series: before the shim; run: f01d5496; passing (%): 100.0" role="graphics-symbol" aria-roledescription="point" transform="translate(249,13.636363636363624)" d="M3.708,0A3.708,3.708,0,1,1,-3.708,0A3.708,3.708,0,1,1,3.708,0" fill="#eb6834" stroke-width="2" opacity="0.85"/><path aria-label="condition: target tests; Integration tests passing (%): 100; offset: 21.25; series: before the shim; run: 8305aa82; passing (%): 100.0" role="graphics-symbol" aria-roledescription="point" transform="translate(255,13.636363636363624)" d="M3.708,0A3.708,3.708,0,1,1,-3.708,0A3.708,3.708,0,1,1,3.708,0" fill="#eb6834" stroke-width="2" opacity="0.85"/><path aria-label="condition: target tests; Integration tests passing (%): 100; offset: 27.25; series: before the shim; run: 609edff1; passing (%): 100.0" role="graphics-symbol" aria-roledescription="point" transform="translate(261,13.636363636363624)" d="M3.708,0A3.708,3.708,0,1,1,-3.708,0A3.708,3.708,0,1,1,3.708,0" fill="#eb6834" stroke-width="2" opacity="0.85"/><path aria-label="condition: target tests; Integration tests passing (%): 100; offset: 33.25; series: before the shim; run: 14873f98; passing (%): 100.0" role="graphics-symbol" aria-roledescription="point" transform="translate(267,13.636363636363624)" d="M3.708,0A3.708,3.708,0,1,1,-3.708,0A3.708,3.708,0,1,1,3.708,0" fill="#eb6834" stroke-width="2" opacity="0.85"/><path aria-label="condition: both tests; Integration tests passing (%): 100; offset: 9.25; series: before the shim; run: 9f286468; passing (%): 100.0" role="graphics-symbol" aria-roledescription="point" transform="translate(353,13.636363636363624)" d="M3.708,0A3.708,3.708,0,1,1,-3.708,0A3.708,3.708,0,1,1,3.708,0" fill="#eb6834" stroke-width="2" opacity="0.85"/><path aria-label="condition: both tests; Integration tests passing (%): 100; offset: 15.25; series: before the shim; run: 89df6247; passing (%): 100.0" role="graphics-symbol" aria-roledescription="point" transform="translate(359,13.636363636363624)" d="M3.708,0A3.708,3.708,0,1,1,-3.708,0A3.708,3.708,0,1,1,3.708,0" fill="#eb6834" stroke-width="2" opacity="0.85"/><path aria-label="condition: both tests; Integration tests passing (%): 100; offset: 21.25; series: before the shim; run: 2a16d72b; passing (%): 100.0" role="graphics-symbol" aria-roledescription="point" transform="translate(365,13.636363636363624)" d="M3.708,0A3.708,3.708,0,1,1,-3.708,0A3.708,3.708,0,1,1,3.708,0" fill="#eb6834" stroke-width="2" opacity="0.85"/><path aria-label="condition: both tests; Integration tests passing (%): 100; offset: 27.25; series: before the shim; run: 9de9fd66; passing (%): 100.0" role="graphics-symbol" aria-roledescription="point" transform="translate(371,13.636363636363624)" d="M3.708,0A3.708,3.708,0,1,1,-3.708,0A3.708,3.708,0,1,1,3.708,0" fill="#eb6834" stroke-width="2" opacity="0.85"/><path aria-label="condition: both tests; Integration tests passing (%): 100; offset: 33.25; series: before the shim; run: 089a4294; passing (%): 100.0" role="graphics-symbol" aria-roledescription="point" transform="translate(377,13.636363636363624)" d="M3.708,0A3.708,3.708,0,1,1,-3.708,0A3.708,3.708,0,1,1,3.708,0" fill="#eb6834" stroke-width="2" opacity="0.85"/><path aria-label="condition: no tests; Integration tests passing (%): 100; offset: 49.25; series: after the shim; run: 2da5a2c0; passing (%): 100.0" role="graphics-symbol" aria-roledescription="point" transform="translate(63,13.636363636363624)" d="M3.708,0A3.708,3.708,0,1,1,-3.708,0A3.708,3.708,0,1,1,3.708,0" fill="#2a78d6" stroke-width="2" opacity="0.85"/><path aria-label="condition: no tests; Integration tests passing (%): 100; offset: 55.25; series: after the shim; run: f8ca89ff; passing (%): 100.0" role="graphics-symbol" aria-roledescription="point" transform="translate(69,13.636363636363624)" d="M3.708,0A3.708,3.708,0,1,1,-3.708,0A3.708,3.708,0,1,1,3.708,0" fill="#2a78d6" stroke-width="2" opacity="0.85"/><path aria-label="condition: no tests; Integration tests passing (%): 100; offset: 61.25; series: after the shim; run: 2d7fbef6; passing (%): 100.0" role="graphics-symbol" aria-roledescription="point" transform="translate(75,13.636363636363624)" d="M3.708,0A3.708,3.708,0,1,1,-3.708,0A3.708,3.708,0,1,1,3.708,0" fill="#2a78d6" stroke-width="2" opacity="0.85"/><path aria-label="condition: no tests; Integration tests passing (%): 100; offset: 67.25; series: after the shim; run: 670261ce; passing (%): 100.0" role="graphics-symbol" aria-roledescription="point" transform="translate(81,13.636363636363624)" d="M3.708,0A3.708,3.708,0,1,1,-3.708,0A3.708,3.708,0,1,1,3.708,0" fill="#2a78d6" stroke-width="2" opacity="0.85"/><path aria-label="condition: no tests; Integration tests passing (%): 100; offset: 73.25; series: after the shim; run: 8e3da990; passing (%): 100.0" role="graphics-symbol" aria-roledescription="point" transform="translate(87,13.636363636363624)" d="M3.708,0A3.708,3.708,0,1,1,-3.708,0A3.708,3.708,0,1,1,3.708,0" fill="#2a78d6" stroke-width="2" opacity="0.85"/><path aria-label="condition: source tests; Integration tests passing (%): 100; offset: 49.25; series: after the shim; run: 054a84ca; passing (%): 100.0" role="graphics-symbol" aria-roledescription="point" transform="translate(173,13.636363636363624)" d="M3.708,0A3.708,3.708,0,1,1,-3.708,0A3.708,3.708,0,1,1,3.708,0" fill="#2a78d6" stroke-width="2" opacity="0.85"/><path aria-label="condition: source tests; Integration tests passing (%): 100; offset: 55.25; series: after the shim; run: 0947f229; passing (%): 100.0" role="graphics-symbol" aria-roledescription="point" transform="translate(179,13.636363636363624)" d="M3.708,0A3.708,3.708,0,1,1,-3.708,0A3.708,3.708,0,1,1,3.708,0" fill="#2a78d6" stroke-width="2" opacity="0.85"/><path aria-label="condition: source tests; Integration tests passing (%): 100; offset: 61.25; series: after the shim; run: 3f62598c; passing (%): 100.0" role="graphics-symbol" aria-roledescription="point" transform="translate(185,13.636363636363624)" d="M3.708,0A3.708,3.708,0,1,1,-3.708,0A3.708,3.708,0,1,1,3.708,0" fill="#2a78d6" stroke-width="2" opacity="0.85"/><path aria-label="condition: source tests; Integration tests passing (%): 100; offset: 67.25; series: after the shim; run: 461ef9c5; passing (%): 100.0" role="graphics-symbol" aria-roledescription="point" transform="translate(191,13.636363636363624)" d="M3.708,0A3.708,3.708,0,1,1,-3.708,0A3.708,3.708,0,1,1,3.708,0" fill="#2a78d6" stroke-width="2" opacity="0.85"/><path aria-label="condition: source tests; Integration tests passing (%): 100; offset: 73.25; series: after the shim; run: 7c1544c0; passing (%): 100.0" role="graphics-symbol" aria-roledescription="point" transform="translate(197,13.636363636363624)" d="M3.708,0A3.708,3.708,0,1,1,-3.708,0A3.708,3.708,0,1,1,3.708,0" fill="#2a78d6" stroke-width="2" opacity="0.85"/><path aria-label="condition: target tests; Integration tests passing (%): 100; offset: 49.25; series: after the shim; run: fbe56704; passing (%): 100.0" role="graphics-symbol" aria-roledescription="point" transform="translate(283,13.636363636363624)" d="M3.708,0A3.708,3.708,0,1,1,-3.708,0A3.708,3.708,0,1,1,3.708,0" fill="#2a78d6" stroke-width="2" opacity="0.85"/><path aria-label="condition: target tests; Integration tests passing (%): 100; offset: 55.25; series: after the shim; run: f01d5496; passing (%): 100.0" role="graphics-symbol" aria-roledescription="point" transform="translate(289,13.636363636363624)" d="M3.708,0A3.708,3.708,0,1,1,-3.708,0A3.708,3.708,0,1,1,3.708,0" fill="#2a78d6" stroke-width="2" opacity="0.85"/><path aria-label="condition: target tests; Integration tests passing (%): 100; offset: 61.25; series: after the shim; run: 8305aa82; passing (%): 100.0" role="graphics-symbol" aria-roledescription="point" transform="translate(295,13.636363636363624)" d="M3.708,0A3.708,3.708,0,1,1,-3.708,0A3.708,3.708,0,1,1,3.708,0" fill="#2a78d6" stroke-width="2" opacity="0.85"/><path aria-label="condition: target tests; Integration tests passing (%): 100; offset: 67.25; series: after the shim; run: 609edff1; passing (%): 100.0" role="graphics-symbol" aria-roledescription="point" transform="translate(301,13.636363636363624)" d="M3.708,0A3.708,3.708,0,1,1,-3.708,0A3.708,3.708,0,1,1,3.708,0" fill="#2a78d6" stroke-width="2" opacity="0.85"/><path aria-label="condition: target tests; Integration tests passing (%): 100; offset: 73.25; series: after the shim; run: 14873f98; passing (%): 100.0" role="graphics-symbol" aria-roledescription="point" transform="translate(307,13.636363636363624)" d="M3.708,0A3.708,3.708,0,1,1,-3.708,0A3.708,3.708,0,1,1,3.708,0" fill="#2a78d6" stroke-width="2" opacity="0.85"/><path aria-label="condition: both tests; Integration tests passing (%): 100; offset: 49.25; series: after the shim; run: 9f286468; passing (%): 100.0" role="graphics-symbol" aria-roledescription="point" transform="translate(393,13.636363636363624)" d="M3.708,0A3.708,3.708,0,1,1,-3.708,0A3.708,3.708,0,1,1,3.708,0" fill="#2a78d6" stroke-width="2" opacity="0.85"/><path aria-label="condition: both tests; Integration tests passing (%): 100; offset: 55.25; series: after the shim; run: 89df6247; passing (%): 100.0" role="graphics-symbol" aria-roledescription="point" transform="translate(399,13.636363636363624)" d="M3.708,0A3.708,3.708,0,1,1,-3.708,0A3.708,3.708,0,1,1,3.708,0" fill="#2a78d6" stroke-width="2" opacity="0.85"/><path aria-label="condition: both tests; Integration tests passing (%): 100; offset: 61.25; series: after the shim; run: 2a16d72b; passing (%): 100.0" role="graphics-symbol" aria-roledescription="point" transform="translate(405,13.636363636363624)" d="M3.708,0A3.708,3.708,0,1,1,-3.708,0A3.708,3.708,0,1,1,3.708,0" fill="#2a78d6" stroke-width="2" opacity="0.85"/><path aria-label="condition: both tests; Integration tests passing (%): 100; offset: 67.25; series: after the shim; run: 9de9fd66; passing (%): 100.0" role="graphics-symbol" aria-roledescription="point" transform="translate(411,13.636363636363624)" d="M3.708,0A3.708,3.708,0,1,1,-3.708,0A3.708,3.708,0,1,1,3.708,0" fill="#2a78d6" stroke-width="2" opacity="0.85"/><path aria-label="condition: both tests; Integration tests passing (%): 100; offset: 73.25; series: after the shim; run: 089a4294; passing (%): 100.0" role="graphics-symbol" aria-roledescription="point" transform="translate(417,13.636363636363624)" d="M3.708,0A3.708,3.708,0,1,1,-3.708,0A3.708,3.708,0,1,1,3.708,0" fill="#2a78d6" stroke-width="2" opacity="0.85"/></g><g class="mark-group role-legend" role="graphics-symbol" aria-roledescription="legend" aria-label="Symbol legend for fill color with 2 values: before the shim, after the shim"><g transform="translate(458,0)"><path class="background" aria-hidden="true" d="M0,0h85v24h-85Z" pointer-events="none"/><g><g class="mark-group role-legend-entry"><g transform="translate(0,0)"><path class="background" aria-hidden="true" d="M0,0h0v0h0Z" pointer-events="none"/><g><g class="mark-group role-scope" role="graphics-object" aria-roledescription="group mark container"><g transform="translate(0,0)"><path class="background" aria-hidden="true" d="M0,0h84.92578125v11h-84.92578125Z" pointer-events="none" opacity="1"/><g><g class="mark-symbol role-legend-symbol" pointer-events="none"><path transform="translate(6,6)" d="M5,0A5,5,0,1,1,-5,0A5,5,0,1,1,5,0" fill="#eb6834" stroke-width="1.5" opacity="1"/></g><g class="mark-text role-legend-label" pointer-events="none"><text text-anchor="start" transform="translate(16,9)" font-family="sans-serif" font-size="10px" fill="#000" opacity="1">before the shim</text></g></g><path class="foreground" aria-hidden="true" d="" pointer-events="none" display="none"/></g><g transform="translate(0,13)"><path class="background" aria-hidden="true" d="M0,0h84.92578125v11h-84.92578125Z" pointer-events="none" opacity="1"/><g><g class="mark-symbol role-legend-symbol" pointer-events="none"><path transform="translate(6,6)" d="M5,0A5,5,0,1,1,-5,0A5,5,0,1,1,5,0" fill="#2a78d6" stroke-width="1.5" opacity="1"/></g><g class="mark-text role-legend-label" pointer-events="none"><text text-anchor="start" transform="translate(16,9)" font-family="sans-serif" font-size="10px" fill="#000" opacity="1">after the shim</text></g></g><path class="foreground" aria-hidden="true" d="" pointer-events="none" display="none"/></g></g></g><path class="foreground" aria-hidden="true" d="" pointer-events="none" display="none"/></g></g></g><path class="foreground" aria-hidden="true" d="" pointer-events="none" display="none"/></g></g><g class="mark-group role-title"><g transform="translate(-38.6845703125,-15)"><path class="background" aria-hidden="true" d="M0,0h0v0h0Z" pointer-events="none"/><g><g class="mark-text role-title-text" role="graphics-symbol" aria-roledescription="title" aria-label="Title text 'typescript → python: integration tests passing, before and after the shim'" pointer-events="none"><text text-anchor="start" transform="translate(0,9)" font-family="sans-serif" font-size="11px" font-weight="bold" fill="#0b0b0b" opacity="1">typescript → python: integration tests passing, before and after the shim</text></g></g><path class="foreground" aria-hidden="true" d="" pointer-events="none" display="none"/></g></g></g><path class="foreground" aria-hidden="true" d="" display="none"/></g></g></g></svg>