<svg xmlns="http://www.w3.org/2000/svg" xmlns:xlink="http://www.w3.org/1999/xlink" version="1.1" class="marks" width="425" height="274" viewBox="0 0 425 274"><rect width="425" height="274" fill="white"/><g fill="none" stroke-miterlimit="10" transform="translate(36,53)"><g class="mark-group role-frame root" role="graphics-object" aria-roledescription="group mark container"><g transform="translate(0,0)"><path class="background" aria-hidden="true" d="M0,0h0v0h0Z"/><g><g class="mark-group role-scope concat_0_group" role="graphics-object" aria-roledescription="group mark container"><g transform="translate(0,0)"><path class="background" aria-hidden="true" d="M0.5,0.5h160v140h-160Z" stroke="#ddd"/><g><g class="mark-group role-axis" aria-hidden="true"><g transform="translate(0.5,0.5)"><path class="background" aria-hidden="true" d="M0,0h0v0h0Z" pointer-events="none"/><g><g class="mark-rule role-axis-grid" pointer-events="none"><line transform="translate(0,112)" x2="160" y2="0" stroke="#ddd" stroke-width="1" opacity="1"/><line transform="translate(0,59)" x2="160" y2="0" stroke="#ddd" stroke-width="1" opacity="1"/><line transform="translate(0,5)" x2="160" y2="0" stroke="#ddd" stroke-width="1" opacity="1"/></g></g><path class="foreground" aria-hidden="true" d="" pointer-events="none" display="none"/></g></g><g class="mark-group role-axis" role="graphics-symbol" aria-roledescription="axis" aria-label="X-axis for a discrete scale with 4 values: no tests, source tests, target tests, both tests"><g transform="translate(0.5,140.5)"><path class="background" aria-hidden="true" d="M0,0h0v0h0Z" pointer-events="none"/><g><g class="mark-rule role-axis-tick" pointer-events="none"><line transform="translate(20,0)" x2="0" y2="5" stroke="#888" stroke-width="1" opacity="1"/><line transform="translate(60,0)" x2="0" y2="5" stroke="#888" stroke-width="1" opacity="1"/><line transform="translate(100,0)" x2="0" y2="5" stroke="#888" stroke-width="1" opacity="1"/><line transform="translate(140,0)" x2="0" y2="5" stroke="#888" stroke-width="1" opacity="1"/></g><g class="mark-text role-axis-label" pointer-events="none"><text text-anchor="end" transform="translate(19.5,7) rotate(-45) translate(0,12)" font-family="sans-serif" font-size="15px" fill="#000" opacity="1">no tests</text><text text-anchor="end" transform="translate(59.5,7) rotate(-45) translate(0,12)" font-family="sans-serif" font-size="15px" fill="#000" opacity="1">source tests</text><text text-anchor="end" transform="translate(99.5,7) rotate(-45) translate(0,12)" font-family="sans-serif" font-size="15px" fill="#000" opacity="1">target tests</text><text text-anchor="end" transform="translate(139.5,7) rotate(-45) translate(0,12)" font-family="sans-serif" font-size="15px" fill="#000" opacity="1">both tests</text></g><g class="mark-rule role-axis-domain" pointer-events="none"><line transform="translate(0,0)" x2="160" y2="0" stroke="#888" stroke-width="1" opacity="1"/></g></g><path class="foreground" aria-hidden="true" d="" pointer-events="none" display="none"/></g></g><g class="mark-group role-axis" role="graphics-symbol" aria-roledescription="axis" aria-label="Y-axis for a linear scale with values from 24 to 155"><g transform="translate(0.5,0.5)"><path class="background" aria-hidden="true" d="M0,0h0v0h0Z" pointer-events="none"/><g><g class="mark-rule role-axis-tick" pointer-events="none"><line transform="translate(0,112)" x2="-5" y2="0" stroke="#888" stroke-width="1" opacity="1"/><line transform="translate(0,59)" x2="-5" y2="0" stroke="#888" stroke-width="1" opacity="1"/><line transform="translate(0,5)" x2="-5" y2="0" stroke="#888" stroke-width="1" opacity="1"/></g><g class="mark-text role-axis-label" pointer-events="none"><text text-anchor="end" transform="translate(-7,112.18797680805615) rotate(-45) translate(0,5)" font-family="sans-serif" font-size="15px" fill="#000" opacity="1">50</text><text text-anchor="end" transform="translate(-7,58.78547451937748) rotate(-45) translate(0,5)" font-family="sans-serif" font-size="15px" fill="#000" opacity="1">100</text><text text-anchor="end" transform="translate(-7,5.382972230698806) rotate(-45) translate(0,5)" font-family="sans-serif" font-size="15px" fill="#000" opacity="1">150</text></g><g class="mark-rule role-axis-domain" pointer-events="none"><line transform="translate(0,140)" x2="0" y2="-140" stroke="#888" stroke-width="1" opacity="1"/></g></g><path class="foreground" aria-hidden="true" d="" pointer-events="none" display="none"/></g></g><g class="mark-rect role-mark concat_0_layer_0_marks" role="graphics-object" aria-roledescription="rect mark container"><path aria-label="condition: no tests; Median of value: 37" role="graphics-symbol" aria-roledescription="tick" d="M5,125.0726274031126h30v2h-30Z" fill="#0b0b0b" opacity="0.7"/><path aria-label="condition: source tests; Median of value: 36" role="graphics-symbol" aria-roledescription="tick" d="M45,126.14067744888618h30v2h-30Z" fill="#0b0b0b" opacity="0.7"/><path aria-label="condition: target tests; Median of value: 35" role="graphics-symbol" aria-roledescription="tick" d="M85,127.20872749465974h30v2h-30Z" fill="#0b0b0b" opacity="0.7"/><path aria-label="condition: both tests; Median of value: 35" role="graphics-symbol" aria-roledescription="tick" d="M125,127.20872749465974h30v2h-30Z" fill="#0b0b0b" opacity="0.7"/></g><g class="mark-symbol role-mark concat_0_layer_1_marks" role="graphics-object" aria-roledescription="symbol mark container"><path aria-label="condition: no tests; value: 36; nudge: −0.5" role="graphics-symbol" aria-roledescription="point" transform="translate(17,127.14067744888618)" d="M4.899,0A4.899,4.899,0,1,1,-4.899,0A4.899,4.899,0,1,1,4.899,0" fill="#4c78a8" stroke-width="2" opacity="0.7"/><path aria-label="condition: no tests; value: 36; nudge: 0.5" role="graphics-symbol" aria-roledescription="point" transform="translate(23,127.14067744888618)" d="M4.899,0A4.899,4.899,0,1,1,-4.899,0A4.899,4.899,0,1,1,4.899,0" fill="#4c78a8" stroke-width="2" opacity="0.7"/><path aria-label="condition: no tests; value: 146; nudge: 0" role="graphics-symbol" aria-roledescription="point" transform="translate(20,9.655172413793093)" d="M4.899,0A4.899,4.899,0,1,1,-4.899,0A4.899,4.899,0,1,1,4.899,0" fill="#4c78a8" stroke-width="2" opacity="0.7"/><path aria-label="condition: no tests; value: 41; nudge: 0" role="graphics-symbol" aria-roledescription="point" transform="translate(20,121.8004272200183)" d="M4.899,0A4.899,4.899,0,1,1,-4.899,0A4.899,4.899,0,1,1,4.899,0" fill="#4c78a8" stroke-width="2" opacity="0.7"/><path aria-label="condition: no tests; value: 37; nudge: 0" role="graphics-symbol" aria-roledescription="point" transform="translate(20,126.0726274031126)" d="M4.899,0A4.899,4.899,0,1,1,-4.899,0A4.899,4.899,0,1,1,4.899,0" fill="#4c78a8" stroke-width="2" opacity="0.7"/><path aria-label="condition: source tests; value: 36; nudge: −0.5" role="graphics-symbol" aria-roledescription="point" transform="translate(57,127.14067744888618)" d="M4.899,0A4.899,4.899,0,1,1,-4.899,0A4.899,4.899,0,1,1,4.899,0" fill="#4c78a8" stroke-width="2" opacity="0.7"/><path aria-label="condition: source tests; value: 36; nudge: 0.5" role="graphics-symbol" aria-roledescription="point" transform="translate(63,127.14067744888618)" d="M4.899,0A4.899,4.899,0,1,1,-4.899,0A4.899,4.899,0,1,1,4.899,0" fill="#4c78a8" stroke-width="2" opacity="0.7"/><path aria-label="condition: source tests; value: 38; nudge: 0" role="graphics-symbol" aria-roledescription="point" transform="translate(60,125.00457735733903)" d="M4.899,0A4.899,4.899,0,1,1,-4.899,0A4.899,4.899,0,1,1,4.899,0" fill="#4c78a8" stroke-width="2" opacity="0.7"/><path aria-label="condition: source tests; value: 34; nudge: 0" role="graphics-symbol" aria-roledescription="point" transform="translate(60,129.27677754043333)" d="M4.899,0A4.899,4.899,0,1,1,-4.899,0A4.899,4.899,0,1,1,4.899,0" fill="#4c78a8" stroke-width="2" opacity="0.7"/><path aria-label="condition: source tests; value: 37; nudge: 0" role="graphics-symbol" aria-roledescription="point" transform="translate(60,126.0726274031126)" d="M4.899,0A4.899,4.899,0,1,1,-4.899,0A4.899,4.899,0,1,1,4.899,0" fill="#4c78a8" stroke-width="2" opacity="0.7"/><path aria-label="condition: target tests; value: 35; nudge: −1" role="graphics-symbol" aria-roledescription="point" transform="translate(94,128.20872749465974)" d="M4.899,0A4.899,4.899,0,1,1,-4.899,0A4.899,4.899,0,1,1,4.899,0" fill="#4c78a8" stroke-width="2" opacity="0.7"/><path aria-label="condition: target tests; value: 35; nudge: 0" role="graphics-symbol" aria-roledescription="point" transform="translate(100,128.20872749465974)" d="M4.899,0A4.899,4.899,0,1,1,-4.899,0A4.899,4.899,0,1,1,4.899,0" fill="#4c78a8" stroke-width="2" opacity="0.7"/><path aria-label="condition: target tests; value: 35; nudge: 1" role="graphics-symbol" aria-roledescription="point" transform="translate(106,128.20872749465974)" d="M4.899,0A4.899,4.899,0,1,1,-4.899,0A4.899,4.899,0,1,1,4.899,0" fill="#4c78a8" stroke-width="2" opacity="0.7"/><path aria-label="condition: target tests; value: 36; nudge: 0" role="graphics-symbol" aria-roledescription="point" transform="translate(100,127.14067744888618)" d="M4.899,0A4.899,4.899,0,1,1,-4.899,0A4.899,4.899,0,1,1,4.899,0" fill="#4c78a8" stroke-width="2" opacity="0.7"/><path aria-label="condition: target tests; value: 37; nudge: 0" role="graphics-symbol" aria-roledescription="point" transform="translate(100,126.0726274031126)" d="M4.899,0A4.899,4.899,0,1,1,-4.899,0A4.899,4.899,0,1,1,4.899,0" fill="#4c78a8" stroke-width="2" opacity="0.7"/><path aria-label="condition: both tests; value: 33; nudge: 0" role="graphics-symbol" aria-roledescription="point" transform="translate(140,130.3448275862069)" d="M4.899,0A4.899,4.899,0,1,1,-4.899,0A4.899,4.899,0,1,1,4.899,0" fill="#4c78a8" stroke-width="2" opacity="0.7"/><path aria-label="condition: both tests; value: 36; nudge: −0.5" role="graphics-symbol" aria-roledescription="point" transform="translate(137,127.14067744888618)" d="M4.899,0A4.899,4.899,0,1,1,-4.899,0A4.899,4.899,0,1,1,4.899,0" fill="#4c78a8" stroke-width="2" opacity="0.7"/><path aria-label="condition: both tests; value: 36; nudge: 0.5" role="graphics-symbol" aria-roledescription="point" transform="translate(143,127.14067744888618)" d="M4.899,0A4.899,4.899,0,1,1,-4.899,0A4.899,4.899,0,1,1,4.899,0" fill="#4c78a8" stroke-width="2" opacity="0.7"/><path aria-label="condition: both tests; value: 34; nudge: 0" role="graphics-symbol" aria-roledescription="point" transform="translate(140,129.27677754043333)" d="M4.899,0A4.899,4.899,0,1,1,-4.899,0A4.899,4.899,0,1,1,4.899,0" fill="#4c78a8" stroke-width="2" opacity="0.7"/><path aria-label="condition: both tests; value: 35; nudge: 0" role="graphics-symbol" aria-roledescription="point" transform="translate(140,128.20872749465974)" d="M4.899,0A4.899,4.899,0,1,1,-4.899,0A4.899,4.899,0,1,1,4.899,0" fill="#4c78a8" stroke-width="2" opacity="0.7"/></g><g class="mark-rule role-mark concat_0_layer_2_marks" role="graphics-object" aria-roledescription="rule mark container"><line aria-label="Median of reference: 45" role="graphics-symbol" aria-roledescription="rule mark" transform="translate(160,117.52822703692401)" x2="-160" y2="0" stroke="black"/></g><g class="mark-group role-title"><g transform="translate(-29.64640668203459,-20.5)"><path class="background" aria-hidden="true" d="M0,0h0v0h0Z" pointer-events="none"/><g><g class="mark-text role-title-text" role="graphics-symbol" aria-roledescription="title" aria-label="Title text 'Files'" pointer-events="none"><text text-anchor="start" transform="translate(0,13)" font-family="sans-serif" font-size="16.5px" font-weight="bold" fill="#0b0b0b" opacity="1">Files</text></g></g><path class="foreground" aria-hidden="true" d="" pointer-events="none" display="none"/></g></g></g><path class="foreground" aria-hidden="true" d="" display="none"/></g></g><g class="mark-group role-scope concat_1_group" role="graphics-object" aria-roledescription="group mark container"><g transform="translate(222,0)"><path class="background" aria-hidden="true" d="M0.5,0.5h160v140h-160Z" stroke="#ddd"/><g><g class="mark-group role-axis" aria-hidden="true"><g transform="translate(0.5,0.5)"><path class="background" aria-hidden="true" d="M0,0h0v0h0Z" pointer-events="none"/><g><g class="mark-rule role-axis-grid" pointer-events="none"><line transform="translate(0,132)" x2="160" y2="0" stroke="#ddd" stroke-width="1" opacity="1"/><line transform="translate(0,100)" x2="160" y2="0" stroke="#ddd" stroke-width="1" opacity="1"/><line transform="translate(0,67)" x2="160" y2="0" stroke="#ddd" stroke-width="1" opacity="1"/><line transform="translate(0,35)" x2="160" y2="0" stroke="#ddd" stroke-width="1" opacity="1"/><line transform="translate(0,3)" x2="160" y2="0" stroke="#ddd" stroke-width="1" opacity="1"/></g></g><path class="foreground" aria-hidden="true" d="" pointer-events="none" display="none"/></g></g><g class="mark-group role-axis" role="graphics-symbol" aria-roledescription="axis" aria-label="X-axis for a discrete scale with 4 values: no tests, source tests, target tests, both tests"><g transform="translate(0.5,140.5)"><path class="background" aria-hidden="true" d="M0,0h0v0h0Z" pointer-events="none"/><g><g class="mark-rule role-axis-tick" pointer-events="none"><line transform="translate(20,0)" x2="0" y2="5" stroke="#888" stroke-width="1" opacity="1"/><line transform="translate(60,0)" x2="0" y2="5" stroke="#888" stroke-width="1" opacity="1"/><line transform="translate(100,0)" x2="0" y2="5" stroke="#888" stroke-width="1" opacity="1"/><line transform="translate(140,0)" x2="0" y2="5" stroke="#888" stroke-width="1" opacity="1"/></g><g class="mark-text role-axis-label" pointer-events="none"><text text-anchor="end" transform="translate(19.5,7) rotate(-45) translate(0,12)" font-family="sans-serif" font-size="15px" fill="#000" opacity="1">no tests</text><text text-anchor="end" transform="translate(59.5,7) rotate(-45) translate(0,12)" font-family="sans-serif" font-size="15px" fill="#000" opacity="1">source tests</text><text text-anchor="end" transform="translate(99.5,7) rotate(-45) translate(0,12)" font-family="sans-serif" font-size="15px" fill="#000" opacity="1">target tests</text><text text-anchor="end" transform="translate(139.5,7) rotate(-45) translate(0,12)" font-family="sans-serif" font-size="15px" fill="#000" opacity="1">both tests</text></g><g class="mark-rule role-axis-domain" pointer-events="none"><line transform="translate(0,0)" x2="160" y2="0" stroke="#888" stroke-width="1" opacity="1"/></g></g><path class="foreground" aria-hidden="true" d="" pointer-events="none" display="none"/></g></g><g class="mark-group role-axis" role="graphics-symbol" aria-roledescription="axis" aria-label="Y-axis for a linear scale with values from 974 to 1,410"><g transform="translate(0.5,0.5)"><path class="background" aria-hidden="true" d="M0,0h0v0h0Z" pointer-events="none"/><g><g class="mark-rule role-axis-tick" pointer-events="none"><line transform="translate(0,132)" x2="-5" y2="0" stroke="#888" stroke-width="1" opacity="1"/><line transform="translate(0,100)" x2="-5" y2="0" stroke="#888" stroke-width="1" opacity="1"/><line transform="translate(0,67)" x2="-5" y2="0" stroke="#888" stroke-width="1" opacity="1"/><line transform="translate(0,35)" x2="-5" y2="0" stroke="#888" stroke-width="1" opacity="1"/><line transform="translate(0,3)" x2="-5" y2="0" stroke="#888" stroke-width="1" opacity="1"/></g><g class="mark-text role-axis-label" pointer-events="none"><text text-anchor="end" transform="translate(-7,131.62876008804108) rotate(-45) translate(0,5)" font-family="sans-serif" font-size="15px" fill="#000" opacity="1">1,000</text><text text-anchor="end" transform="translate(-7,99.53044754218635) rotate(-45) translate(0,5)" font-family="sans-serif" font-size="15px" fill="#000" opacity="0">1,100</text><text text-anchor="end" transform="translate(-7,67.43213499633161) rotate(-45) translate(0,5)" font-family="sans-serif" font-size="15px" fill="#000" opacity="1">1,200</text><text text-anchor="end" transform="translate(-7,35.33382245047687) rotate(-45) translate(0,5)" font-family="sans-serif" font-size="15px" fill="#000" opacity="0">1,300</text><text text-anchor="end" transform="translate(-7,3.2355099046221314) rotate(-45) translate(0,5)" font-family="sans-serif" font-size="15px" fill="#000" opacity="1">1,400</text></g><g class="mark-rule role-axis-domain" pointer-events="none"><line transform="translate(0,140)" x2="0" y2="-140" stroke="#888" stroke-width="1" opacity="1"/></g></g><path class="foreground" aria-hidden="true" d="" pointer-events="none" display="none"/></g></g><g class="mark-rect role-mark concat_1_layer_0_marks" role="graphics-object" aria-roledescription="rect mark container"><path aria-label="condition: no tests; Median of value: 1234" role="graphics-symbol" aria-roledescription="tick" d="M5,55.51870873074099h30v2h-30Z" fill="#0b0b0b" opacity="0.7"/><path aria-label="condition: source tests; Median of value: 1096" role="graphics-symbol" aria-roledescription="tick" d="M45,99.81438004402052h30v2h-30Z" fill="#0b0b0b" opacity="0.7"/><path aria-label="condition: target tests; Median of value: 1117" role="graphics-symbol" aria-roledescription="tick" d="M85,93.07373440939102h30v2h-30Z" fill="#0b0b0b" opacity="0.7"/><path aria-label="condition: both tests; Median of value: 1131" role="graphics-symbol" aria-roledescription="tick" d="M125,88.57997065297137h30v2h-30Z" fill="#0b0b0b" opacity="0.7"/></g><g class="mark-symbol role-mark concat_1_layer_1_marks" role="graphics-object" aria-roledescription="symbol mark container"><path aria-label="condition: no tests; value: 1044; nudge: 0" role="graphics-symbol" aria-roledescription="point" transform="translate(20,117.505502567865)" d="M4.899,0A4.899,4.899,0,1,1,-4.899,0A4.899,4.899,0,1,1,4.899,0" fill="#4c78a8" stroke-width="2" opacity="0.7"/><path aria-label="condition: no tests; value: 1380; nudge: 0" role="graphics-symbol" aria-roledescription="point" transform="translate(20,9.655172413793077)" d="M4.899,0A4.899,4.899,0,1,1,-4.899,0A4.899,4.899,0,1,1,4.899,0" fill="#4c78a8" stroke-width="2" opacity="0.7"/><path aria-label="condition: no tests; value: 1323; nudge: 0" role="graphics-symbol" aria-roledescription="point" transform="translate(20,27.951210564930275)" d="M4.899,0A4.899,4.899,0,1,1,-4.899,0A4.899,4.899,0,1,1,4.899,0" fill="#4c78a8" stroke-width="2" opacity="0.7"/><path aria-label="condition: no tests; value: 1135; nudge: 0" role="graphics-symbol" aria-roledescription="point" transform="translate(20,88.29603815113718)" d="M4.899,0A4.899,4.899,0,1,1,-4.899,0A4.899,4.899,0,1,1,4.899,0" fill="#4c78a8" stroke-width="2" opacity="0.7"/><path aria-label="condition: no tests; value: 1234; nudge: 0" role="graphics-symbol" aria-roledescription="point" transform="translate(20,56.51870873074099)" d="M4.899,0A4.899,4.899,0,1,1,-4.899,0A4.899,4.899,0,1,1,4.899,0" fill="#4c78a8" stroke-width="2" opacity="0.7"/><path aria-label="condition: source tests; value: 1096; nudge: 0" role="graphics-symbol" aria-roledescription="point" transform="translate(60,100.81438004402052)" d="M4.899,0A4.899,4.899,0,1,1,-4.899,0A4.899,4.899,0,1,1,4.899,0" fill="#4c78a8" stroke-width="2" opacity="0.7"/><path aria-label="condition: source tests; value: 1256; nudge: 0" role="graphics-symbol" aria-roledescription="point" transform="translate(60,49.457079970652956)" d="M4.899,0A4.899,4.899,0,1,1,-4.899,0A4.899,4.899,0,1,1,4.899,0" fill="#4c78a8" stroke-width="2" opacity="0.7"/><path aria-label="condition: source tests; value: 1050; nudge: 0" role="graphics-symbol" aria-roledescription="point" transform="translate(60,115.5796038151137)" d="M4.899,0A4.899,4.899,0,1,1,-4.899,0A4.899,4.899,0,1,1,4.899,0" fill="#4c78a8" stroke-width="2" opacity="0.7"/><path aria-label="condition: source tests; value: 1148; nudge: 0" role="graphics-symbol" aria-roledescription="point" transform="translate(60,84.12325752017607)" d="M4.899,0A4.899,4.899,0,1,1,-4.899,0A4.899,4.899,0,1,1,4.899,0" fill="#4c78a8" stroke-width="2" opacity="0.7"/><path aria-label="condition: source tests; value: 1082; nudge: 0" role="graphics-symbol" aria-roledescription="point" transform="translate(60,105.30814380044019)" d="M4.899,0A4.899,4.899,0,1,1,-4.899,0A4.899,4.899,0,1,1,4.899,0" fill="#4c78a8" stroke-width="2" opacity="0.7"/><path aria-label="condition: target tests; value: 1117; nudge: 0" role="graphics-symbol" aria-roledescription="point" transform="translate(100,94.07373440939102)" d="M4.899,0A4.899,4.899,0,1,1,-4.899,0A4.899,4.899,0,1,1,4.899,0" fill="#4c78a8" stroke-width="2" opacity="0.7"/><path aria-label="condition: target tests; value: 1114; nudge: 0" role="graphics-symbol" aria-roledescription="point" transform="translate(100,95.03668378576667)" d="M4.899,0A4.899,4.899,0,1,1,-4.899,0A4.899,4.899,0,1,1,4.899,0" fill="#4c78a8" stroke-width="2" opacity="0.7"/><path aria-label="condition: target tests; value: 1131; nudge: 0" role="graphics-symbol" aria-roledescription="point" transform="translate(100,89.57997065297137)" d="M4.899,0A4.899,4.899,0,1,1,-4.899,0A4.899,4.899,0,1,1,4.899,0" fill="#4c78a8" stroke-width="2" opacity="0.7"/><path aria-label="condition: target tests; value: 1129; nudge: 0" role="graphics-symbol" aria-roledescription="point" transform="translate(100,90.22193690388845)" d="M4.899,0A4.899,4.899,0,1,1,-4.899,0A4.899,4.899,0,1,1,4.899,0" fill="#4c78a8" stroke-width="2" opacity="0.7"/><path aria-label="condition: target tests; value: 1039; nudge: 0" role="graphics-symbol" aria-roledescription="point" transform="translate(100,119.11041819515773)" d="M4.899,0A4.899,4.899,0,1,1,-4.899,0A4.899,4.899,0,1,1,4.899,0" fill="#4c78a8" stroke-width="2" opacity="0.7"/><path aria-label="condition: both tests; value: 1131; nudge: 0" role="graphics-symbol" aria-roledescription="point" transform="translate(140,89.57997065297137)" d="M4.899,0A4.899,4.899,0,1,1,-4.899,0A4.899,4.899,0,1,1,4.899,0" fill="#4c78a8" stroke-width="2" opacity="0.7"/><path aria-label="condition: both tests; value: 1170; nudge: 0" role="graphics-symbol" aria-roledescription="point" transform="translate(140,77.06162876008801)" d="M4.899,0A4.899,4.899,0,1,1,-4.899,0A4.899,4.899,0,1,1,4.899,0" fill="#4c78a8" stroke-width="2" opacity="0.7"/><path aria-label="condition: both tests; value: 1004; nudge: 0" role="graphics-symbol" aria-roledescription="point" transform="translate(140,130.3448275862069)" d="M4.899,0A4.899,4.899,0,1,1,-4.899,0A4.899,4.899,0,1,1,4.899,0" fill="#4c78a8" stroke-width="2" opacity="0.7"/><path aria-label="condition: both tests; value: 1133; nudge: 0" role="graphics-symbol" aria-roledescription="point" transform="translate(140,88.93800440205428)" d="M4.899,0A4.899,4.899,0,1,1,-4.899,0A4.899,4.899,0,1,1,4.899,0" fill="#4c78a8" stroke-width="2" opacity="0.7"/><path aria-label="condition: both tests; value: 1025; nudge: 0" role="graphics-symbol" aria-roledescription="point" transform="translate(140,123.60418195157739)" d="M4.899,0A4.899,4.899,0,1,1,-4.899,0A4.899,4.899,0,1,1,4.899,0" fill="#4c78a8" stroke-width="2" opacity="0.7"/></g><g class="mark-rule role-mark concat_1_layer_2_marks" role="graphics-object" aria-roledescription="rule mark container"><line aria-label="Median of reference: 1143" role="graphics-symbol" aria-roledescription="rule mark" transform="translate(160,85.7281731474688)" x2="-160" y2="0" stroke="black"/></g><g class="mark-group role-title"><g transform="translate(-38.49214678652646,-22.214237563683703)"><path class="background" aria-hidden="true" d="M0,0h0v0h0Z" pointer-events="none"/><g><g class="mark-text role-title-text" role="graphics-symbol" aria-roledescription="title" aria-label="Title text 'LOC'" pointer-events="none"><text text-anchor="start" transform="translate(0,13)" font-family="sans-serif" font-size="16.5px" font-weight="bold" fill="#0b0b0b" opacity="1">LOC</text></g></g><path class="foreground" aria-hidden="true" d="" pointer-events="none" display="none"/></g></g></g><path class="foreground" aria-hidden="true" d="" display="none"/></g></g><g class="mark-group role-title"><g transform="translate(-30.64640668203459,-46.7142375636837)"><path class="background" aria-hidden="true" d="M0,0h0v0h0Z" pointer-events="none"/><g><g class="mark-text role-title-text" role="graphics-symbol" aria-roledescription="title" aria-label="Title text 'python -&gt; typescript'" pointer-events="none"><text text-anchor="start" transform="translate(0,15)" font-family="sans-serif" font-size="19.5px" font-weight="bold" fill="#000" opacity="1">python -&gt; typescript</text></g></g><path class="foreground" aria-hidden="true" d="" pointer-events="none" display="none"/></g></g></g><path class="foreground" aria-hidden="true" d="" display="none"/></g></g></g></svg>