<svg xmlns="http://www.w3.org/2000/svg" xmlns:xlink="http://www.w3.org/1999/xlink" version="1.1" class="marks" width="370.5" height="263" viewBox="0 0 370.5 263"><g fill="none" stroke-miterlimit="10" transform="translate(40,47)"><g class="mark-group role-frame root" role="graphics-object" aria-roledescription="group mark container"><g transform="translate(0,0)"><path class="background" aria-hidden="true" d="M0,0h0v0h0Z"/><g><g class="mark-group role-scope concat_0_group" role="graphics-object" aria-roledescription="group mark container"><g transform="translate(0,0)"><path class="background" aria-hidden="true" d="M0.5,0.5h128.875v140h-128.875Z" stroke="#2e2b26"/><g><g class="mark-group role-axis" aria-hidden="true"><g transform="translate(0.5,0.5)"><path class="background" aria-hidden="true" d="M0,0h0v0h0Z" pointer-events="none"/><g><g class="mark-rule role-axis-grid" pointer-events="none"><line transform="translate(0,117)" x2="128.875" y2="0" stroke="#2e2b26" stroke-width="1" opacity="1"/><line transform="translate(0,83)" x2="128.875" y2="0" stroke="#2e2b26" stroke-width="1" opacity="1"/><line transform="translate(0,50)" x2="128.875" y2="0" stroke="#2e2b26" stroke-width="1" opacity="1"/><line transform="translate(0,16)" x2="128.875" y2="0" stroke="#2e2b26" stroke-width="1" opacity="1"/></g></g><path class="foreground" aria-hidden="true" d="" pointer-events="none" display="none"/></g></g><g class="mark-group role-axis" role="graphics-symbol" aria-roledescription="axis" aria-label="X-axis titled 'test inclusion' for a discrete scale with 4 values: no tests, source tests, target tests, both tests"><g transform="translate(0.5,140.5)"><path class="background" aria-hidden="true" d="M0,0h0v0h0Z" pointer-events="none"/><g><g class="mark-rule role-axis-tick" pointer-events="none"><line transform="translate(16,0)" x2="0" y2="5" stroke="#4c4840" stroke-width="1" opacity="1"/><line transform="translate(48,0)" x2="0" y2="5" stroke="#4c4840" stroke-width="1" opacity="1"/><line transform="translate(80,0)" x2="0" y2="5" stroke="#4c4840" stroke-width="1" opacity="1"/><line transform="translate(112,0)" x2="0" y2="5" stroke="#4c4840" stroke-width="1" opacity="1"/></g><g class="mark-text role-axis-label" pointer-events="none"><text text-anchor="end" transform="translate(15.609375,11) rotate(327.5) translate(0,14)" font-family="sans-serif" font-size="17.32px" fill="#d8d3ca" opacity="1">none</text><text text-anchor="end" transform="translate(47.828125,11) rotate(327.5) translate(0,14)" font-family="sans-serif" font-size="17.32px" fill="#d8d3ca" opacity="1">source</text><text text-anchor="end" transform="translate(80.046875,11) rotate(327.5) translate(0,14)" font-family="sans-serif" font-size="17.32px" fill="#d8d3ca" opacity="1">target</text><text text-anchor="end" transform="translate(112.265625,11) rotate(327.5) translate(0,14)" font-family="sans-serif" font-size="17.32px" fill="#d8d3ca" opacity="1">both</text></g><g class="mark-rule role-axis-domain" pointer-events="none"><line transform="translate(0,0)" x2="128.875" y2="0" stroke="#4c4840" stroke-width="1" opacity="1"/></g><g class="mark-text role-axis-title" pointer-events="none"><text text-anchor="middle" transform="translate(64.4375,67.53926117359447)" font-family="sans-serif" font-size="12.375px" font-weight="bold" fill="#f3f1ec" opacity="1">test inclusion</text></g></g><path class="foreground" aria-hidden="true" d="" pointer-events="none" display="none"/></g></g><g class="mark-group role-axis" role="graphics-symbol" aria-roledescription="axis" aria-label="Y-axis for a linear scale with values from 32 to 52"><g transform="translate(0.5,0.5)"><path class="background" aria-hidden="true" d="M0,0h0v0h0Z" pointer-events="none"/><g><g class="mark-rule role-axis-tick" pointer-events="none"><line transform="translate(0,117)" x2="-5" y2="0" stroke="#4c4840" stroke-width="1" opacity="1"/><line transform="translate(0,83)" x2="-5" y2="0" stroke="#4c4840" stroke-width="1" opacity="1"/><line transform="translate(0,50)" x2="-5" y2="0" stroke="#4c4840" stroke-width="1" opacity="1"/><line transform="translate(0,16)" x2="-5" y2="0" stroke="#4c4840" stroke-width="1" opacity="1"/></g><g class="mark-text role-axis-label" pointer-events="none"><text text-anchor="end" transform="translate(-14,116.93486590038313) rotate(-45) translate(0,5)" font-family="sans-serif" font-size="17.32px" fill="#d8d3ca" opacity="1">35</text><text text-anchor="end" transform="translate(-14,83.40996168582375) rotate(-45) translate(0,5)" font-family="sans-serif" font-size="17.32px" fill="#d8d3ca" opacity="1">40</text><text text-anchor="end" transform="translate(-14,49.88505747126435) rotate(-45) translate(0,5)" font-family="sans-serif" font-size="17.32px" fill="#d8d3ca" opacity="1">45</text><text text-anchor="end" transform="translate(-14,16.36015325670496) rotate(-45) translate(0,5)" font-family="sans-serif" font-size="17.32px" fill="#d8d3ca" opacity="1">50</text></g><g class="mark-rule role-axis-domain" pointer-events="none"><line transform="translate(0,140)" x2="0" y2="-140" stroke="#4c4840" stroke-width="1" opacity="1"/></g></g><path class="foreground" aria-hidden="true" d="" pointer-events="none" display="none"/></g></g><g class="mark-rect role-mark concat_0_layer_0_marks" role="graphics-object" aria-roledescription="rect mark container"><path aria-label="test inclusion: no tests; Median of value: 36.5" role="graphics-symbol" aria-roledescription="tick" d="M1.109375,105.87739463601531h30v2h-30Z" fill="#f3f1ec" opacity="0.7"/><path aria-label="test inclusion: source tests; Median of value: 36" role="graphics-symbol" aria-roledescription="tick" d="M33.328125,109.22988505747126h30v2h-30Z" fill="#f3f1ec" opacity="0.7"/><path aria-label="test inclusion: target tests; Median of value: 35" role="graphics-symbol" aria-roledescription="tick" d="M65.546875,115.93486590038313h30v2h-30Z" fill="#f3f1ec" opacity="0.7"/><path aria-label="test inclusion: both tests; Median of value: 35" role="graphics-symbol" aria-roledescription="tick" d="M97.765625,115.93486590038313h30v2h-30Z" fill="#f3f1ec" opacity="0.7"/></g><g class="mark-symbol role-mark concat_0_layer_1_marks" role="graphics-object" aria-roledescription="symbol mark container"><path aria-label="test inclusion: no tests; value: 36; nudge: −0.5" role="graphics-symbol" aria-roledescription="point" transform="translate(13.109375,110.22988505747126)" d="M4.899,0A4.899,4.899,0,1,1,-4.899,0A4.899,4.899,0,1,1,4.899,0" fill="#4c78a8" fill-opacity="0.5" stroke="#4c78a8" stroke-opacity="1" stroke-width="2"/><path aria-label="test inclusion: no tests; value: 36; nudge: 0.5" role="graphics-symbol" aria-roledescription="point" transform="translate(19.109375,110.22988505747126)" d="M4.899,0A4.899,4.899,0,1,1,-4.899,0A4.899,4.899,0,1,1,4.899,0" fill="#4c78a8" fill-opacity="0.5" stroke="#4c78a8" stroke-opacity="1" stroke-width="2"/><path aria-label="test inclusion: no tests; value: 41; nudge: 0" role="graphics-symbol" aria-roledescription="point" transform="translate(16.109375,76.70498084291187)" d="M4.899,0A4.899,4.899,0,1,1,-4.899,0A4.899,4.899,0,1,1,4.899,0" fill="#4c78a8" fill-opacity="0.5" stroke="#4c78a8" stroke-opacity="1" stroke-width="2"/><path aria-label="test inclusion: no tests; value: 37; nudge: 0" role="graphics-symbol" aria-roledescription="point" transform="translate(16.109375,103.52490421455937)" d="M4.899,0A4.899,4.899,0,1,1,-4.899,0A4.899,4.899,0,1,1,4.899,0" fill="#4c78a8" fill-opacity="0.5" stroke="#4c78a8" stroke-opacity="1" stroke-width="2"/><path aria-label="test inclusion: source tests; value: 36; nudge: −0.5" role="graphics-symbol" aria-roledescription="point" transform="translate(45.328125,110.22988505747126)" d="M4.899,0A4.899,4.899,0,1,1,-4.899,0A4.899,4.899,0,1,1,4.899,0" fill="#4c78a8" fill-opacity="0.5" stroke="#4c78a8" stroke-opacity="1" stroke-width="2"/><path aria-label="test inclusion: source tests; value: 36; nudge: 0.5" role="graphics-symbol" aria-roledescription="point" transform="translate(51.328125,110.22988505747126)" d="M4.899,0A4.899,4.899,0,1,1,-4.899,0A4.899,4.899,0,1,1,4.899,0" fill="#4c78a8" fill-opacity="0.5" stroke="#4c78a8" stroke-opacity="1" stroke-width="2"/><path aria-label="test inclusion: source tests; value: 38; nudge: 0" role="graphics-symbol" aria-roledescription="point" transform="translate(48.328125,96.8199233716475)" d="M4.899,0A4.899,4.899,0,1,1,-4.899,0A4.899,4.899,0,1,1,4.899,0" fill="#4c78a8" fill-opacity="0.5" stroke="#4c78a8" stroke-opacity="1" stroke-width="2"/><path aria-label="test inclusion: source tests; value: 34; nudge: 0" role="graphics-symbol" aria-roledescription="point" transform="translate(48.328125,123.63984674329501)" d="M4.899,0A4.899,4.899,0,1,1,-4.899,0A4.899,4.899,0,1,1,4.899,0" fill="#4c78a8" fill-opacity="0.5" stroke="#4c78a8" stroke-opacity="1" stroke-width="2"/><path aria-label="test inclusion: source tests; value: 37; nudge: 0" role="graphics-symbol" aria-roledescription="point" transform="translate(48.328125,103.52490421455937)" d="M4.899,0A4.899,4.899,0,1,1,-4.899,0A4.899,4.899,0,1,1,4.899,0" fill="#4c78a8" fill-opacity="0.5" stroke="#4c78a8" stroke-opacity="1" stroke-width="2"/><path aria-label="test inclusion: target tests; value: 35; nudge: −1" role="graphics-symbol" aria-roledescription="point" transform="translate(74.546875,116.93486590038313)" d="M4.899,0A4.899,4.899,0,1,1,-4.899,0A4.899,4.899,0,1,1,4.899,0" fill="#4c78a8" fill-opacity="0.5" stroke="#4c78a8" stroke-opacity="1" stroke-width="2"/><path aria-label="test inclusion: target tests; value: 35; nudge: 0" role="graphics-symbol" aria-roledescription="point" transform="translate(80.546875,116.93486590038313)" d="M4.899,0A4.899,4.899,0,1,1,-4.899,0A4.899,4.899,0,1,1,4.899,0" fill="#4c78a8" fill-opacity="0.5" stroke="#4c78a8" stroke-opacity="1" stroke-width="2"/><path aria-label="test inclusion: target tests; value: 35; nudge: 1" role="graphics-symbol" aria-roledescription="point" transform="translate(86.546875,116.93486590038313)" d="M4.899,0A4.899,4.899,0,1,1,-4.899,0A4.899,4.899,0,1,1,4.899,0" fill="#4c78a8" fill-opacity="0.5" stroke="#4c78a8" stroke-opacity="1" stroke-width="2"/><path aria-label="test inclusion: target tests; value: 36; nudge: 0" role="graphics-symbol" aria-roledescription="point" transform="translate(80.546875,110.22988505747126)" d="M4.899,0A4.899,4.899,0,1,1,-4.899,0A4.899,4.899,0,1,1,4.899,0" fill="#4c78a8" fill-opacity="0.5" stroke="#4c78a8" stroke-opacity="1" stroke-width="2"/><path aria-label="test inclusion: target tests; value: 37; nudge: 0" role="graphics-symbol" aria-roledescription="point" transform="translate(80.546875,103.52490421455937)" d="M4.899,0A4.899,4.899,0,1,1,-4.899,0A4.899,4.899,0,1,1,4.899,0" fill="#4c78a8" fill-opacity="0.5" stroke="#4c78a8" stroke-opacity="1" stroke-width="2"/><path aria-label="test inclusion: both tests; value: 33; nudge: 0" role="graphics-symbol" aria-roledescription="point" transform="translate(112.765625,130.3448275862069)" d="M4.899,0A4.899,4.899,0,1,1,-4.899,0A4.899,4.899,0,1,1,4.899,0" fill="#4c78a8" fill-opacity="0.5" stroke="#4c78a8" stroke-opacity="1" stroke-width="2"/><path aria-label="test inclusion: both tests; value: 36; nudge: −0.5" role="graphics-symbol" aria-roledescription="point" transform="translate(109.765625,110.22988505747126)" d="M4.899,0A4.899,4.899,0,1,1,-4.899,0A4.899,4.899,0,1,1,4.899,0" fill="#4c78a8" fill-opacity="0.5" stroke="#4c78a8" stroke-opacity="1" stroke-width="2"/><path aria-label="test inclusion: both tests; value: 36; nudge: 0.5" role="graphics-symbol" aria-roledescription="point" transform="translate(115.765625,110.22988505747126)" d="M4.899,0A4.899,4.899,0,1,1,-4.899,0A4.899,4.899,0,1,1,4.899,0" fill="#4c78a8" fill-opacity="0.5" stroke="#4c78a8" stroke-opacity="1" stroke-width="2"/><path aria-label="test inclusion: both tests; value: 34; nudge: 0" role="graphics-symbol" aria-roledescription="point" transform="translate(112.765625,123.63984674329501)" d="M4.899,0A4.899,4.899,0,1,1,-4.899,0A4.899,4.899,0,1,1,4.899,0" fill="#4c78a8" fill-opacity="0.5" stroke="#4c78a8" stroke-opacity="1" stroke-width="2"/><path aria-label="test inclusion: both tests; value: 35; nudge: 0" role="graphics-symbol" aria-roledescription="point" transform="translate(112.765625,116.93486590038313)" d="M4.899,0A4.899,4.899,0,1,1,-4.899,0A4.899,4.899,0,1,1,4.899,0" fill="#4c78a8" fill-opacity="0.5" stroke="#4c78a8" stroke-opacity="1" stroke-width="2"/></g><g class="mark-rule role-mark concat_0_layer_2_marks" role="graphics-object" aria-roledescription="rule mark container"><line aria-label="Median of reference: 45" role="graphics-symbol" aria-roledescription="rule mark" transform="translate(128.875,49.88505747126435)" x2="-128.875" y2="0" stroke="#f3f1ec"/></g><g class="mark-group role-title"><g transform="translate(-33.9864563580015,-16.375)"><path class="background" aria-hidden="true" d="M0,0h0v0h0Z" pointer-events="none"/><g><g class="mark-text role-title-text" role="graphics-symbol" aria-roledescription="title" aria-label="Title text 'Files'" pointer-events="none"><text text-anchor="start" transform="translate(33.9864563580015,10)" font-family="sans-serif" font-size="12.375px" font-weight="bold" fill="#f3f1ec" opacity="1">Files</text></g></g><path class="foreground" aria-hidden="true" d="" pointer-events="none" display="none"/></g></g></g><path class="foreground" aria-hidden="true" d="" display="none"/></g></g><g class="mark-group role-scope concat_1_group" role="graphics-object" aria-roledescription="group mark container"><g transform="translate(189,0)"><path class="background" aria-hidden="true" d="M0.5,0.5h128.875v140h-128.875Z" stroke="#2e2b26"/><g><g class="mark-group role-axis" aria-hidden="true"><g transform="translate(0.5,0.5)"><path class="background" aria-hidden="true" d="M0,0h0v0h0Z" pointer-events="none"/><g><g class="mark-rule role-axis-grid" pointer-events="none"><line transform="translate(0,118)" x2="128.875" y2="0" stroke="#2e2b26" stroke-width="1" opacity="1"/><line transform="translate(0,70)" x2="128.875" y2="0" stroke="#2e2b26" stroke-width="1" opacity="1"/><line transform="translate(0,23)" x2="128.875" y2="0" stroke="#2e2b26" stroke-width="1" opacity="1"/></g></g><path class="foreground" aria-hidden="true" d="" pointer-events="none" display="none"/></g></g><g class="mark-group role-axis" role="graphics-symbol" aria-roledescription="axis" aria-label="X-axis titled 'test inclusion' for a discrete scale with 4 values: no tests, source tests, target tests, both tests"><g transform="translate(0.5,140.5)"><path class="background" aria-hidden="true" d="M0,0h0v0h0Z" pointer-events="none"/><g><g class="mark-rule role-axis-tick" pointer-events="none"><line transform="translate(16,0)" x2="0" y2="5" stroke="#4c4840" stroke-width="1" opacity="1"/><line transform="translate(48,0)" x2="0" y2="5" stroke="#4c4840" stroke-width="1" opacity="1"/><line transform="translate(80,0)" x2="0" y2="5" stroke="#4c4840" stroke-width="1" opacity="1"/><line transform="translate(112,0)" x2="0" y2="5" stroke="#4c4840" stroke-width="1" opacity="1"/></g><g class="mark-text role-axis-label" pointer-events="none"><text text-anchor="end" transform="translate(15.609375,11) rotate(327.5) translate(0,14)" font-family="sans-serif" font-size="17.32px" fill="#d8d3ca" opacity="1">none</text><text text-anchor="end" transform="translate(47.828125,11) rotate(327.5) translate(0,14)" font-family="sans-serif" font-size="17.32px" fill="#d8d3ca" opacity="1">source</text><text text-anchor="end" transform="translate(80.046875,11) rotate(327.5) translate(0,14)" font-family="sans-serif" font-size="17.32px" fill="#d8d3ca" opacity="1">target</text><text text-anchor="end" transform="translate(112.265625,11) rotate(327.5) translate(0,14)" font-family="sans-serif" font-size="17.32px" fill="#d8d3ca" opacity="1">both</text></g><g class="mark-rule role-axis-domain" pointer-events="none"><line transform="translate(0,0)" x2="128.875" y2="0" stroke="#4c4840" stroke-width="1" opacity="1"/></g><g class="mark-text role-axis-title" pointer-events="none"><text text-anchor="middle" transform="translate(64.4375,67.53926117359447)" font-family="sans-serif" font-size="12.375px" font-weight="bold" fill="#f3f1ec" opacity="1">test inclusion</text></g></g><path class="foreground" aria-hidden="true" d="" pointer-events="none" display="none"/></g></g><g class="mark-group role-axis" role="graphics-symbol" aria-roledescription="axis" aria-label="Y-axis for a linear scale with values from 0.9k to 1.5k"><g transform="translate(0.5,0.5)"><path class="background" aria-hidden="true" d="M0,0h0v0h0Z" pointer-events="none"/><g><g class="mark-rule role-axis-tick" pointer-events="none"><line transform="translate(0,118)" x2="-5" y2="0" stroke="#4c4840" stroke-width="1" opacity="1"/><line transform="translate(0,70)" x2="-5" y2="0" stroke="#4c4840" stroke-width="1" opacity="1"/><line transform="translate(0,23)" x2="-5" y2="0" stroke="#4c4840" stroke-width="1" opacity="1"/></g><g class="mark-text role-axis-label" pointer-events="none"><text text-anchor="end" transform="translate(-7,117.72835475753247) rotate(-45) translate(0,5)" font-family="sans-serif" font-size="17.32px" fill="#d8d3ca" opacity="1">1k</text><text text-anchor="end" transform="translate(-7,70.1190233285724) rotate(-45) translate(0,5)" font-family="sans-serif" font-size="17.32px" fill="#d8d3ca" opacity="1">1.2k</text><text text-anchor="end" transform="translate(-7,22.509691899612314) rotate(-45) translate(0,5)" font-family="sans-serif" font-size="17.32px" fill="#d8d3ca" opacity="1">1.4k</text></g><g class="mark-rule role-axis-domain" pointer-events="none"><line transform="translate(0,140)" x2="0" y2="-140" stroke="#4c4840" stroke-width="1" opacity="1"/></g></g><path class="foreground" aria-hidden="true" d="" pointer-events="none" display="none"/></g></g><g class="mark-rect role-mark concat_1_layer_0_marks" role="graphics-object" aria-roledescription="rect mark container"><path aria-label="test inclusion: no tests; Median of value: 1.234k" role="graphics-symbol" aria-roledescription="tick" d="M1.109375,61.025436985649186h30v2h-30Z" fill="#f3f1ec" opacity="0.7"/><path aria-label="test inclusion: source tests; Median of value: 1.096k" role="graphics-symbol" aria-roledescription="tick" d="M33.328125,93.87587567163163h30v2h-30Z" fill="#f3f1ec" opacity="0.7"/><path aria-label="test inclusion: target tests; Median of value: 1.117k" role="graphics-symbol" aria-roledescription="tick" d="M65.546875,88.87689587159085h30v2h-30Z" fill="#f3f1ec" opacity="0.7"/><path aria-label="test inclusion: both tests; Median of value: 1.131k" role="graphics-symbol" aria-roledescription="tick" d="M97.765625,85.54424267156362h30v2h-30Z" fill="#f3f1ec" opacity="0.7"/></g><g class="mark-symbol role-mark concat_1_layer_1_marks" role="graphics-object" aria-roledescription="symbol mark container"><path aria-label="test inclusion: no tests; value: 1.044k; nudge: 0" role="graphics-symbol" aria-roledescription="point" transform="translate(16.109375,107.25430184316127)" d="M4.899,0A4.899,4.899,0,1,1,-4.899,0A4.899,4.899,0,1,1,4.899,0" fill="#4c78a8" fill-opacity="0.5" stroke="#4c78a8" stroke-opacity="1" stroke-width="2"/><path aria-label="test inclusion: no tests; value: 1.38k; nudge: 0" role="graphics-symbol" aria-roledescription="point" transform="translate(16.109375,27.27062504250832)" d="M4.899,0A4.899,4.899,0,1,1,-4.899,0A4.899,4.899,0,1,1,4.899,0" fill="#4c78a8" fill-opacity="0.5" stroke="#4c78a8" stroke-opacity="1" stroke-width="2"/><path aria-label="test inclusion: no tests; value: 1.323k; nudge: 0" role="graphics-symbol" aria-roledescription="point" transform="translate(16.109375,40.839284499761945)" d="M4.899,0A4.899,4.899,0,1,1,-4.899,0A4.899,4.899,0,1,1,4.899,0" fill="#4c78a8" fill-opacity="0.5" stroke="#4c78a8" stroke-opacity="1" stroke-width="2"/><path aria-label="test inclusion: no tests; value: 1.135k; nudge: 0" role="graphics-symbol" aria-roledescription="point" transform="translate(16.109375,85.59205604298442)" d="M4.899,0A4.899,4.899,0,1,1,-4.899,0A4.899,4.899,0,1,1,4.899,0" fill="#4c78a8" fill-opacity="0.5" stroke="#4c78a8" stroke-opacity="1" stroke-width="2"/><path aria-label="test inclusion: no tests; value: 1.234k; nudge: 0" role="graphics-symbol" aria-roledescription="point" transform="translate(16.109375,62.025436985649186)" d="M4.899,0A4.899,4.899,0,1,1,-4.899,0A4.899,4.899,0,1,1,4.899,0" fill="#4c78a8" fill-opacity="0.5" stroke="#4c78a8" stroke-opacity="1" stroke-width="2"/><path aria-label="test inclusion: source tests; value: 1.096k; nudge: 0" role="graphics-symbol" aria-roledescription="point" transform="translate(48.328125,94.87587567163163)" d="M4.899,0A4.899,4.899,0,1,1,-4.899,0A4.899,4.899,0,1,1,4.899,0" fill="#4c78a8" fill-opacity="0.5" stroke="#4c78a8" stroke-opacity="1" stroke-width="2"/><path aria-label="test inclusion: source tests; value: 1.256k; nudge: 0" role="graphics-symbol" aria-roledescription="point" transform="translate(48.328125,56.78841052846357)" d="M4.899,0A4.899,4.899,0,1,1,-4.899,0A4.899,4.899,0,1,1,4.899,0" fill="#4c78a8" fill-opacity="0.5" stroke="#4c78a8" stroke-opacity="1" stroke-width="2"/><path aria-label="test inclusion: source tests; value: 1.05k; nudge: 0" role="graphics-symbol" aria-roledescription="point" transform="translate(48.328125,105.82602190029246)" d="M4.899,0A4.899,4.899,0,1,1,-4.899,0A4.899,4.899,0,1,1,4.899,0" fill="#4c78a8" fill-opacity="0.5" stroke="#4c78a8" stroke-opacity="1" stroke-width="2"/><path aria-label="test inclusion: source tests; value: 1.148k; nudge: 0" role="graphics-symbol" aria-roledescription="point" transform="translate(48.328125,82.49744950010201)" d="M4.899,0A4.899,4.899,0,1,1,-4.899,0A4.899,4.899,0,1,1,4.899,0" fill="#4c78a8" fill-opacity="0.5" stroke="#4c78a8" stroke-opacity="1" stroke-width="2"/><path aria-label="test inclusion: source tests; value: 1.082k; nudge: 0" role="graphics-symbol" aria-roledescription="point" transform="translate(48.328125,98.20852887165886)" d="M4.899,0A4.899,4.899,0,1,1,-4.899,0A4.899,4.899,0,1,1,4.899,0" fill="#4c78a8" fill-opacity="0.5" stroke="#4c78a8" stroke-opacity="1" stroke-width="2"/><path aria-label="test inclusion: target tests; value: 1.117k; nudge: 0" role="graphics-symbol" aria-roledescription="point" transform="translate(80.546875,89.87689587159085)" d="M4.899,0A4.899,4.899,0,1,1,-4.899,0A4.899,4.899,0,1,1,4.899,0" fill="#4c78a8" fill-opacity="0.5" stroke="#4c78a8" stroke-opacity="1" stroke-width="2"/><path aria-label="test inclusion: target tests; value: 1.114k; nudge: 0" role="graphics-symbol" aria-roledescription="point" transform="translate(80.546875,90.59103584302522)" d="M4.899,0A4.899,4.899,0,1,1,-4.899,0A4.899,4.899,0,1,1,4.899,0" fill="#4c78a8" fill-opacity="0.5" stroke="#4c78a8" stroke-opacity="1" stroke-width="2"/><path aria-label="test inclusion: target tests; value: 1.131k; nudge: 0" role="graphics-symbol" aria-roledescription="point" transform="translate(80.546875,86.54424267156362)" d="M4.899,0A4.899,4.899,0,1,1,-4.899,0A4.899,4.899,0,1,1,4.899,0" fill="#4c78a8" fill-opacity="0.5" stroke="#4c78a8" stroke-opacity="1" stroke-width="2"/><path aria-label="test inclusion: target tests; value: 1.129k; nudge: 0" role="graphics-symbol" aria-roledescription="point" transform="translate(80.546875,87.02033598585324)" d="M4.899,0A4.899,4.899,0,1,1,-4.899,0A4.899,4.899,0,1,1,4.899,0" fill="#4c78a8" fill-opacity="0.5" stroke="#4c78a8" stroke-opacity="1" stroke-width="2"/><path aria-label="test inclusion: target tests; value: 1.039k; nudge: 0" role="graphics-symbol" aria-roledescription="point" transform="translate(80.546875,108.44453512888526)" d="M4.899,0A4.899,4.899,0,1,1,-4.899,0A4.899,4.899,0,1,1,4.899,0" fill="#4c78a8" fill-opacity="0.5" stroke="#4c78a8" stroke-opacity="1" stroke-width="2"/><path aria-label="test inclusion: both tests; value: 1.131k; nudge: 0" role="graphics-symbol" aria-roledescription="point" transform="translate(112.765625,86.54424267156362)" d="M4.899,0A4.899,4.899,0,1,1,-4.899,0A4.899,4.899,0,1,1,4.899,0" fill="#4c78a8" fill-opacity="0.5" stroke="#4c78a8" stroke-opacity="1" stroke-width="2"/><path aria-label="test inclusion: both tests; value: 1.17k; nudge: 0" role="graphics-symbol" aria-roledescription="point" transform="translate(112.765625,77.26042304291641)" d="M4.899,0A4.899,4.899,0,1,1,-4.899,0A4.899,4.899,0,1,1,4.899,0" fill="#4c78a8" fill-opacity="0.5" stroke="#4c78a8" stroke-opacity="1" stroke-width="2"/><path aria-label="test inclusion: both tests; value: 1.004k; nudge: 0" role="graphics-symbol" aria-roledescription="point" transform="translate(112.765625,116.77616812895329)" d="M4.899,0A4.899,4.899,0,1,1,-4.899,0A4.899,4.899,0,1,1,4.899,0" fill="#4c78a8" fill-opacity="0.5" stroke="#4c78a8" stroke-opacity="1" stroke-width="2"/><path aria-label="test inclusion: both tests; value: 1.133k; nudge: 0" role="graphics-symbol" aria-roledescription="point" transform="translate(112.765625,86.06814935727404)" d="M4.899,0A4.899,4.899,0,1,1,-4.899,0A4.899,4.899,0,1,1,4.899,0" fill="#4c78a8" fill-opacity="0.5" stroke="#4c78a8" stroke-opacity="1" stroke-width="2"/><path aria-label="test inclusion: both tests; value: 1.025k; nudge: 0" role="graphics-symbol" aria-roledescription="point" transform="translate(112.765625,111.77718832891247)" d="M4.899,0A4.899,4.899,0,1,1,-4.899,0A4.899,4.899,0,1,1,4.899,0" fill="#4c78a8" fill-opacity="0.5" stroke="#4c78a8" stroke-opacity="1" stroke-width="2"/></g><g class="mark-rule role-mark concat_1_layer_2_marks" role="graphics-object" aria-roledescription="rule mark container"><line aria-label="Median of reference: 1.143k" role="graphics-symbol" aria-roledescription="rule mark" transform="translate(128.875,83.68768278582603)" x2="-128.875" y2="0" stroke="#f3f1ec"/></g><g class="mark-group role-title"><g transform="translate(-36.51263406664136,-16.375)"><path class="background" aria-hidden="true" d="M0,0h0v0h0Z" pointer-events="none"/><g><g class="mark-text role-title-text" role="graphics-symbol" aria-roledescription="title" aria-label="Title text 'LOC'" pointer-events="none"><text text-anchor="start" transform="translate(36.51263406664137,10)" font-family="sans-serif" font-size="12.375px" font-weight="bold" fill="#f3f1ec" opacity="1">LOC</text></g></g><path class="foreground" aria-hidden="true" d="" pointer-events="none" display="none"/></g></g></g><path class="foreground" aria-hidden="true" d="" display="none"/></g></g><g class="mark-group role-title"><g transform="translate(-34.9864563580015,-40.875)"><path class="background" aria-hidden="true" d="M0,0h0v0h0Z" pointer-events="none"/><g><g class="mark-text role-title-text" role="graphics-symbol" aria-roledescription="title" aria-label="Title text 'python → typescript*'" pointer-events="none"><text text-anchor="start" transform="translate(0,15)" font-family="sans-serif" font-size="19.5px" font-weight="bold" fill="#f3f1ec" opacity="1">python → typescript*</text></g></g><path class="foreground" aria-hidden="true" d="" pointer-events="none" display="none"/></g></g></g><path class="foreground" aria-hidden="true" d="" display="none"/></g></g></g></svg>