<svg xmlns="http://www.w3.org/2000/svg" xmlns:xlink="http://www.w3.org/1999/xlink" version="1.1" class="marks" width="488" height="378" viewBox="0 0 488 378"><g fill="none" stroke-miterlimit="10" transform="translate(41,20)"><g class="mark-group role-frame root" role="graphics-object" aria-roledescription="group mark container"><g transform="translate(0,0)"><path class="background" aria-hidden="true" d="M0.5,0.5h440v300h-440Z" stroke="#2e2b26"/><g><g class="mark-group role-axis" aria-hidden="true"><g transform="translate(0.5,0.5)"><path class="background" aria-hidden="true" d="M0,0h0v0h0Z" pointer-events="none"/><g><g class="mark-rule role-axis-grid" pointer-events="none"><line transform="translate(0,261)" x2="440" y2="0" stroke="#2e2b26" stroke-width="1" opacity="1"/><line transform="translate(0,220)" x2="440" y2="0" stroke="#2e2b26" stroke-width="1" opacity="1"/><line transform="translate(0,179)" x2="440" y2="0" stroke="#2e2b26" stroke-width="1" opacity="1"/><line transform="translate(0,138)" x2="440" y2="0" stroke="#2e2b26" stroke-width="1" opacity="1"/><line transform="translate(0,97)" x2="440" y2="0" stroke="#2e2b26" stroke-width="1" opacity="1"/><line transform="translate(0,56)" x2="440" y2="0" stroke="#2e2b26" stroke-width="1" opacity="1"/><line transform="translate(0,15)" x2="440" y2="0" stroke="#2e2b26" stroke-width="1" opacity="1"/></g></g><path class="foreground" aria-hidden="true" d="" pointer-events="none" display="none"/></g></g><g class="mark-group role-axis" role="graphics-symbol" aria-roledescription="axis" aria-label="X-axis for a discrete scale with 4 values: no tests, source tests, target tests, both tests"><g transform="translate(0.5,300.5)"><path class="background" aria-hidden="true" d="M0,0h0v0h0Z" pointer-events="none"/><g><g class="mark-rule role-axis-tick" pointer-events="none"><line transform="translate(62,0)" x2="0" y2="5" stroke="#4c4840" stroke-width="1" opacity="1"/><line transform="translate(167,0)" x2="0" y2="5" stroke="#4c4840" stroke-width="1" opacity="1"/><line transform="translate(272,0)" x2="0" y2="5" stroke="#4c4840" stroke-width="1" opacity="1"/><line transform="translate(377,0)" x2="0" y2="5" stroke="#4c4840" stroke-width="1" opacity="1"/></g><g class="mark-text role-axis-label" pointer-events="none"><text text-anchor="end" transform="translate(62.35714285714287,7) rotate(-45) translate(0,8)" font-family="sans-serif" font-size="10px" fill="#d8d3ca" opacity="1">no tests</text><text text-anchor="end" transform="translate(167.11904761904762,7) rotate(-45) translate(0,8)" font-family="sans-serif" font-size="10px" fill="#d8d3ca" opacity="1">source tests</text><text text-anchor="end" transform="translate(271.8809523809524,7) rotate(-45) translate(0,8)" font-family="sans-serif" font-size="10px" fill="#d8d3ca" opacity="1">target tests</text><text text-anchor="end" transform="translate(376.64285714285717,7) rotate(-45) translate(0,8)" font-family="sans-serif" font-size="10px" fill="#d8d3ca" opacity="1">both tests</text></g><g class="mark-rule role-axis-domain" pointer-events="none"><line transform="translate(0,0)" x2="440" y2="0" stroke="#4c4840" stroke-width="1" opacity="1"/></g></g><path class="foreground" aria-hidden="true" d="" pointer-events="none" display="none"/></g></g><g class="mark-group role-axis" role="graphics-symbol" aria-roledescription="axis" aria-label="Y-axis titled 'Ladder time ÷ reference' for a linear scale with values from 0.6 to 2.1"><g transform="translate(0.5,0.5)"><path class="background" aria-hidden="true" d="M0,0h0v0h0Z" pointer-events="none"/><g><g class="mark-rule role-axis-tick" pointer-events="none"><line transform="translate(0,261)" x2="-5" y2="0" stroke="#4c4840" stroke-width="1" opacity="1"/><line transform="translate(0,220)" x2="-5" y2="0" stroke="#4c4840" stroke-width="1" opacity="1"/><line transform="translate(0,179)" x2="-5" y2="0" stroke="#4c4840" stroke-width="1" opacity="1"/><line transform="translate(0,138)" x2="-5" y2="0" stroke="#4c4840" stroke-width="1" opacity="1"/><line transform="translate(0,97)" x2="-5" y2="0" stroke="#4c4840" stroke-width="1" opacity="1"/><line transform="translate(0,56)" x2="-5" y2="0" stroke="#4c4840" stroke-width="1" opacity="1"/><line transform="translate(0,15)" x2="-5" y2="0" stroke="#4c4840" stroke-width="1" opacity="1"/></g><g class="mark-text role-axis-label" pointer-events="none"><text text-anchor="end" transform="translate(-7,261.2982599576641) rotate(-45) translate(0,3)" font-family="sans-serif" font-size="10px" fill="#d8d3ca" opacity="1">0.8</text><text text-anchor="end" transform="translate(-7,220.24192281291255) rotate(-45) translate(0,3)" font-family="sans-serif" font-size="10px" fill="#d8d3ca" opacity="1">1.0</text><text text-anchor="end" transform="translate(-7,179.18558566816102) rotate(-45) translate(0,3)" font-family="sans-serif" font-size="10px" fill="#d8d3ca" opacity="1">1.2</text><text text-anchor="end" transform="translate(-7,138.1292485234095) rotate(-45) translate(0,3)" font-family="sans-serif" font-size="10px" fill="#d8d3ca" opacity="1">1.4</text><text text-anchor="end" transform="translate(-7,97.07291137865795) rotate(-45) translate(0,3)" font-family="sans-serif" font-size="10px" fill="#d8d3ca" opacity="1">1.6</text><text text-anchor="end" transform="translate(-7,56.01657423390639) rotate(-45) translate(0,3)" font-family="sans-serif" font-size="10px" fill="#d8d3ca" opacity="1">1.8</text><text text-anchor="end" transform="translate(-7,14.960237089154926) rotate(-45) translate(0,3)" font-family="sans-serif" font-size="10px" fill="#d8d3ca" opacity="1">2.0</text></g><g class="mark-rule role-axis-domain" pointer-events="none"><line transform="translate(0,300)" x2="0" y2="-300" stroke="#4c4840" stroke-width="1" opacity="1"/></g><g class="mark-text role-axis-title" pointer-events="none"><text text-anchor="middle" transform="translate(-24.365284911978158,150) rotate(-90) translate(0,-2)" font-family="sans-serif" font-size="11px" font-weight="bold" fill="#f3f1ec" opacity="1">Ladder time ÷ reference</text></g></g><path class="foreground" aria-hidden="true" d="" pointer-events="none" display="none"/></g></g><g class="mark-rect role-mark layer_0_marks" role="graphics-object" aria-roledescription="rect mark container"><path aria-label="condition: no tests; Ladder time ÷ reference: 0.988171703008; nudge: 0" role="graphics-symbol" aria-roledescription="tick" d="M47.95238095238096,221.6700555586737h56v2h-56Z" fill="#f3f1ec" opacity="0.7"/><path aria-label="condition: source tests; Ladder time ÷ reference: 1.08585265435; nudge: 0" role="graphics-symbol" aria-roledescription="tick" d="M152.71428571428572,201.61794520384368h56v2h-56Z" fill="#f3f1ec" opacity="0.7"/><path aria-label="condition: target tests; Ladder time ÷ reference: 0.764488670547; nudge: 0" role="graphics-symbol" aria-roledescription="tick" d="M257.4761904761905,267.5880855300051h56v2h-56Z" fill="#f3f1ec" opacity="0.7"/><path aria-label="condition: both tests; Ladder time ÷ reference: 0.784569588743; nudge: 0" role="graphics-symbol" aria-roledescription="tick" d="M362.23809523809524,263.4658407919739h56v2h-56Z" fill="#f3f1ec" opacity="0.7"/></g><g class="mark-symbol role-mark layer_1_marks" role="graphics-object" aria-roledescription="symbol mark container"><path aria-label="condition: no tests; Ladder time ÷ reference: 1.03008119795; nudge: 0; run: 2da5a2c0; ladder time ÷ reference: 1.03; rungs completed: 16; total ms: 416.1" role="graphics-symbol" aria-roledescription="point" transform="translate(75.95238095238096,214.06680378898827)" d="M4.183,0A4.183,4.183,0,1,1,-4.183,0A4.183,4.183,0,1,1,4.183,0" fill="#4c78a8" stroke-width="2" opacity="0.75"/><path aria-label="condition: no tests; Ladder time ÷ reference: 0.946262208065; nudge: 0; run: f8ca89ff; ladder time ÷ reference: 0.95; rungs completed: 16; total ms: 409.9" role="graphics-symbol" aria-roledescription="point" transform="translate(75.95238095238096,231.2733073283591)" d="M4.183,0A4.183,4.183,0,1,1,-4.183,0A4.183,4.183,0,1,1,4.183,0" fill="#4c78a8" stroke-width="2" opacity="0.75"/><path aria-label="condition: no tests; Ladder time ÷ reference: 0.748292397005; nudge: 0; run: 2d7fbef6; ladder time ÷ reference: 0.75; rungs completed: 16; total ms: 370.1" role="graphics-symbol" aria-roledescription="point" transform="translate(75.95238095238096,271.91288386525275)" d="M4.183,0A4.183,4.183,0,1,1,-4.183,0A4.183,4.183,0,1,1,4.183,0" fill="#4c78a8" stroke-width="2" opacity="0.75"/><path aria-label="condition: no tests; Ladder time ÷ reference: 1.97208996963; nudge: 0; run: 670261ce; ladder time ÷ reference: 1.97; rungs completed: 18; total ms: 20,950.7" role="graphics-symbol" aria-roledescription="point" transform="translate(75.95238095238096,20.68965517241377)" d="M4.183,0A4.183,4.183,0,1,1,-4.183,0A4.183,4.183,0,1,1,4.183,0" fill="#4c78a8" stroke-width="2" opacity="0.75"/><path aria-label="condition: source tests; Ladder time ÷ reference: 0.719814411021; nudge: 0; run: 054a84ca; ladder time ÷ reference: 0.72; rungs completed: 16; total ms: 359.5" role="graphics-symbol" aria-roledescription="point" transform="translate(180.71428571428572,277.7588928340322)" d="M4.183,0A4.183,4.183,0,1,1,-4.183,0A4.183,4.183,0,1,1,4.183,0" fill="#4c78a8" stroke-width="2" opacity="0.75"/><path aria-label="condition: source tests; Ladder time ÷ reference: 0.75174202043; nudge: 0; run: 3f62598c; ladder time ÷ reference: 0.75; rungs completed: 16; total ms: 366.2" role="graphics-symbol" aria-roledescription="point" transform="translate(180.71428571428572,271.2047393535144)" d="M4.183,0A4.183,4.183,0,1,1,-4.183,0A4.183,4.183,0,1,1,4.183,0" fill="#4c78a8" stroke-width="2" opacity="0.75"/><path aria-label="condition: source tests; Ladder time ÷ reference: 1.41996328827; nudge: 0; run: 461ef9c5; ladder time ÷ reference: 1.42; rungs completed: 16; total ms: 496.0" role="graphics-symbol" aria-roledescription="point" transform="translate(180.71428571428572,134.0311510541729)" d="M4.183,0A4.183,4.183,0,1,1,-4.183,0A4.183,4.183,0,1,1,4.183,0" fill="#4c78a8" stroke-width="2" opacity="0.75"/><path aria-label="condition: source tests; Ladder time ÷ reference: 1.89485500841; nudge: 0; run: 7c1544c0; ladder time ÷ reference: 1.89; rungs completed: 16; total ms: 575.0" role="graphics-symbol" aria-roledescription="point" transform="translate(180.71428571428572,36.54457820816555)" d="M4.183,0A4.183,4.183,0,1,1,-4.183,0A4.183,4.183,0,1,1,4.183,0" fill="#4c78a8" stroke-width="2" opacity="0.75"/><path aria-label="condition: target tests; Ladder time ÷ reference: 0.764488670547; nudge: 0.5; run: fbe56704; ladder time ÷ reference: 0.76; rungs completed: 16; total ms: 372.7" role="graphics-symbol" aria-roledescription="point" transform="translate(291.4761904761905,268.5880855300051)" d="M4.183,0A4.183,4.183,0,1,1,-4.183,0A4.183,4.183,0,1,1,4.183,0" fill="#4c78a8" stroke-width="2" opacity="0.75"/><path aria-label="condition: target tests; Ladder time ÷ reference: 0.720117142561; nudge: 0; run: f01d5496; ladder time ÷ reference: 0.72; rungs completed: 16; total ms: 364.3" role="graphics-symbol" aria-roledescription="point" transform="translate(285.4761904761905,277.6967475931073)" d="M4.183,0A4.183,4.183,0,1,1,-4.183,0A4.183,4.183,0,1,1,4.183,0" fill="#4c78a8" stroke-width="2" opacity="0.75"/><path aria-label="condition: target tests; Ladder time ÷ reference: 0.839766829499; nudge: 0; run: 8305aa82; ladder time ÷ reference: 0.84; rungs completed: 16; total ms: 388.2" role="graphics-symbol" aria-roledescription="point" transform="translate(285.4761904761905,253.13485816232134)" d="M4.183,0A4.183,4.183,0,1,1,-4.183,0A4.183,4.183,0,1,1,4.183,0" fill="#4c78a8" stroke-width="2" opacity="0.75"/><path aria-label="condition: target tests; Ladder time ÷ reference: 0.76367691938; nudge: −0.5; run: 609edff1; ladder time ÷ reference: 0.76; rungs completed: 16; total ms: 369.7" role="graphics-symbol" aria-roledescription="point" transform="translate(279.4761904761905,268.7547231779651)" d="M4.183,0A4.183,4.183,0,1,1,-4.183,0A4.183,4.183,0,1,1,4.183,0" fill="#4c78a8" stroke-width="2" opacity="0.75"/><path aria-label="condition: target tests; Ladder time ÷ reference: 0.801173279899; nudge: 0; run: 14873f98; ladder time ÷ reference: 0.80; rungs completed: 16; total ms: 379.6" role="graphics-symbol" aria-roledescription="point" transform="translate(285.4761904761905,261.0574070821495)" d="M4.183,0A4.183,4.183,0,1,1,-4.183,0A4.183,4.183,0,1,1,4.183,0" fill="#4c78a8" stroke-width="2" opacity="0.75"/><path aria-label="condition: both tests; Ladder time ÷ reference: 0.786149484692; nudge: 0.5; run: 9f286468; ladder time ÷ reference: 0.79; rungs completed: 16; total ms: 372.3" role="graphics-symbol" aria-roledescription="point" transform="translate(396.23809523809524,264.1415170882449)" d="M4.183,0A4.183,4.183,0,1,1,-4.183,0A4.183,4.183,0,1,1,4.183,0" fill="#4c78a8" stroke-width="2" opacity="0.75"/><path aria-label="condition: both tests; Ladder time ÷ reference: 0.852598830391; nudge: 0; run: 2a16d72b; ladder time ÷ reference: 0.85; rungs completed: 16; total ms: 391.4" role="graphics-symbol" aria-roledescription="point" transform="translate(390.23809523809524,250.50068338784936)" d="M4.183,0A4.183,4.183,0,1,1,-4.183,0A4.183,4.183,0,1,1,4.183,0" fill="#4c78a8" stroke-width="2" opacity="0.75"/><path aria-label="condition: both tests; Ladder time ÷ reference: 0.782989692793; nudge: −0.5; run: 9de9fd66; ladder time ÷ reference: 0.78; rungs completed: 16; total ms: 379.5" role="graphics-symbol" aria-roledescription="point" transform="translate(384.23809523809524,264.7901644957029)" d="M4.183,0A4.183,4.183,0,1,1,-4.183,0A4.183,4.183,0,1,1,4.183,0" fill="#4c78a8" stroke-width="2" opacity="0.75"/><path aria-label="condition: both tests; Ladder time ÷ reference: 0.712256737339; nudge: 0; run: 089a4294; ladder time ÷ reference: 0.71; rungs completed: 16; total ms: 365.2" role="graphics-symbol" aria-roledescription="point" transform="translate(390.23809523809524,279.3103448275862)" d="M4.183,0A4.183,4.183,0,1,1,-4.183,0A4.183,4.183,0,1,1,4.183,0" fill="#4c78a8" stroke-width="2" opacity="0.75"/></g><g class="mark-rule role-mark layer_2_marks" role="graphics-object" aria-roledescription="rule mark container"><line aria-label="Ladder time ÷ reference: 1" role="graphics-symbol" aria-roledescription="rule mark" transform="translate(440,220.24192281291255)" x2="-440" y2="0" stroke="#f3f1ec" stroke-width="2"/></g><g class="mark-text role-mark layer_3_marks" role="graphics-object" aria-roledescription="text mark container"><text aria-label="Ladder time ÷ reference: 1; label: reference" role="graphics-symbol" aria-roledescription="text mark" text-anchor="start" transform="translate(2,216.24192281291255)" font-family="sans-serif" font-size="9px" fill="#d8d3ca">reference</text></g><g class="mark-group role-title"><g transform="translate(-35.36528491197816,-15)"><path class="background" aria-hidden="true" d="M0,0h0v0h0Z" pointer-events="none"/><g><g class="mark-text role-title-text" role="graphics-symbol" aria-roledescription="title" aria-label="Title text 'typescript → python: ladder time relative to the reference'" pointer-events="none"><text text-anchor="start" transform="translate(0,9)" font-family="sans-serif" font-size="11px" font-weight="bold" fill="#f3f1ec" opacity="1">typescript → python: ladder time relative to the reference</text></g></g><path class="foreground" aria-hidden="true" d="" pointer-events="none" display="none"/></g></g></g><path class="foreground" aria-hidden="true" d="" display="none"/></g></g></g></svg>